<svg width="41" height="18" viewBox="0 0 41 18" fill="none" xmlns="http://www.w3.org/2000/svg">
<path d="M40.6749 1.68754C40.8944 1.49643 41.0108 1.24443 40.9992 0.985721C40.9876 0.727015 40.8489 0.482266 40.6128 0.304098C40.5023 0.208253 40.3679 0.13173 40.2183 0.0793806C40.0686 0.0270316 39.9069 -4.77805e-08 39.7434 -5.49267e-08C39.5799 -6.20728e-08 39.4182 0.0270316 39.2686 0.0793805C39.1189 0.131729 38.9846 0.208253 38.874 0.304098L20.4927 15.5713L2.11137 0.304096C2.00084 0.208252 1.86648 0.131728 1.71682 0.0793789C1.56716 0.0270299 1.40547 -1.73073e-06 1.24198 -1.73788e-06C1.0785 -1.74502e-06 0.916796 0.0270299 0.767136 0.0793788C0.617475 0.131728 0.483118 0.208251 0.372592 0.304096C0.138585 0.486543 0.0046644 0.735166 -1.80258e-06 0.995816C0.00887339 1.24672 0.117589 1.48892 0.310494 1.68754L19.6233 17.6959C19.7338 17.7917 19.8682 17.8683 20.0179 17.9206C20.1675 17.973 20.3292 18 20.4927 18C20.6562 18 20.8179 17.973 20.9675 17.9206C21.1172 17.8683 21.2516 17.7917 21.3621 17.6959L40.6749 1.68754Z" fill="white"/>
</svg>
