<svg width="46" height="46" viewBox="0 0 46 46" fill="none" xmlns="http://www.w3.org/2000/svg">
<circle cx="23" cy="23" r="22.5" fill="#CDAC6D" stroke="white"/>
<path d="M31.9502 12H24.2502C23.6713 12 23.2002 12.4711 23.2002 13.05V20.75C23.2002 21.3289 23.6713 21.8 24.2502 21.8H31.9502C32.5291 21.8 33.0002 21.3289 33.0002 20.75V13.05C33.0002 12.4711 32.5291 12 31.9502 12ZM32.3002 20.75C32.3002 20.9432 32.1434 21.1 31.9502 21.1H24.2502C24.057 21.1 23.9002 20.9432 23.9002 20.75V13.05C23.9002 12.8568 24.057 12.7 24.2502 12.7H31.9502C32.1434 12.7 32.3002 12.8568 32.3002 13.05V20.75Z" fill="white"/>
<path d="M20.75 23.2H13.05C12.4711 23.2 12 23.6711 12 24.25V31.95C12 32.5289 12.4711 33 13.05 33H20.75C21.3289 33 21.8 32.5289 21.8 31.95V24.25C21.8 23.6711 21.3289 23.2 20.75 23.2ZM21.1 31.95C21.1 32.1432 20.9432 32.3 20.75 32.3H13.05C12.8568 32.3 12.7 32.1432 12.7 31.95V24.25C12.7 24.0568 12.8568 23.9 13.05 23.9H20.75C20.9432 23.9 21.1 24.0568 21.1 24.25V31.95Z" fill="white"/>
<path d="M16.9011 27.0491C17.481 27.0491 17.9511 26.579 17.9511 25.9991C17.9511 25.4192 17.481 24.9491 16.9011 24.9491C16.3212 24.9491 15.8511 25.4192 15.8511 25.9991C15.8511 26.579 16.3212 27.0491 16.9011 27.0491Z" fill="white"/>
<path d="M17.9511 30.1991C17.9511 30.7793 17.4786 31.2491 16.9011 31.2491C16.321 31.2491 15.8511 30.7793 15.8511 30.1991C15.8511 29.6216 16.321 29.1491 16.9011 29.1491C17.4786 29.1491 17.9511 29.6216 17.9511 30.1991Z" fill="white"/>
<path d="M19.7 27.75H14.1C13.9065 27.75 13.75 27.9065 13.75 28.1C13.75 28.2936 13.9065 28.45 14.1 28.45H19.7C19.8936 28.45 20.05 28.2936 20.05 28.1C20.05 27.9065 19.8936 27.75 19.7 27.75Z" fill="white"/>
<path d="M30.9002 16.55H25.3002C25.1066 16.55 24.9502 16.7065 24.9502 16.9C24.9502 17.0936 25.1066 17.25 25.3002 17.25H30.9002C31.0938 17.25 31.2502 17.0936 31.2502 16.9C31.2502 16.7065 31.0938 16.55 30.9002 16.55Z" fill="white"/>
<path d="M20.7491 12H13.05C12.4699 12 12 12.4699 12 13.05V20.7491C12 21.3293 12.4699 21.7991 13.05 21.7991H20.7491C21.3293 21.7991 21.7991 21.3293 21.7991 20.7491V13.05C21.7991 12.4699 21.3293 12 20.7491 12ZM19.6991 17.25H17.25V19.6991C17.25 19.8934 17.0925 20.0509 16.9009 20.0509C16.7066 20.0509 16.5491 19.8934 16.5491 19.6991V17.25H14.1C13.9058 17.25 13.7509 17.0925 13.7509 16.9009C13.7509 16.7066 13.9058 16.5491 14.1 16.5491H16.5491V14.1C16.5491 13.9058 16.7066 13.7509 16.9009 13.7509C17.0925 13.7509 17.25 13.9058 17.25 14.1V16.5491H19.6991C19.8934 16.5491 20.0509 16.7066 20.0509 16.9009C20.0509 17.0925 19.8934 17.25 19.6991 17.25Z" fill="white"/>
<path d="M31.9498 23.2009H24.2507C23.6706 23.2009 23.2007 23.6708 23.2007 24.2509V31.95C23.2007 32.5301 23.6706 33 24.2507 33H31.9498C32.53 33 32.9998 32.5301 32.9998 31.95V24.2509C32.9998 23.6708 32.53 23.2009 31.9498 23.2009ZM30.4483 29.9524C30.5848 30.0889 30.5848 30.3094 30.4483 30.4485C30.3801 30.5167 30.2882 30.5509 30.1989 30.5509C30.1097 30.5509 30.0204 30.5167 29.9522 30.4485L28.0989 28.5952L26.2483 30.4485C26.1801 30.5167 26.0882 30.5509 25.9989 30.5509C25.9097 30.5509 25.8204 30.5167 25.7522 30.4485C25.6157 30.3094 25.6157 30.0889 25.7522 29.9524L27.6054 28.0991L25.7522 26.2485C25.6157 26.1094 25.6157 25.8889 25.7522 25.7524C25.8887 25.6159 26.1092 25.6159 26.2483 25.7524L28.0989 27.6056L29.9522 25.7524C30.0887 25.6159 30.3092 25.6159 30.4483 25.7524C30.5848 25.8889 30.5848 26.1094 30.4483 26.2485L28.5951 28.0991L30.4483 29.9524Z" fill="white"/>
</svg>
