<svg width="95" height="95" viewBox="0 0 95 95" fill="none" xmlns="http://www.w3.org/2000/svg">
<circle cx="47.5" cy="47.5" r="47" stroke="#CDAC6D"/>
<path d="M25.9036 28.6689C23.7724 28.6689 22.0336 30.4073 22.0329 32.5385C22.0313 39.5233 22.0974 46.7299 22.0244 53.7031C21.9649 59.4006 22.0329 64.8092 22.0329 70.4678C22.0329 72.5994 23.7708 74.3395 25.9025 74.3395C30.9503 74.3401 36.1108 74.3802 41.1541 74.4907C44.3992 74.5618 47.5147 74.3395 50.7376 74.3395C52.8647 74.3395 54.6082 72.6006 54.6082 70.4678V69.9886C54.6082 69.844 54.5508 69.7054 54.4485 69.6031C54.3463 69.5009 54.2076 69.4434 54.063 69.4434C53.9184 69.4434 53.7798 69.5009 53.6775 69.6031C53.5753 69.7054 53.5178 69.844 53.5178 69.9886V70.4678C53.5178 72.0096 52.2741 73.2491 50.7376 73.2491C47.465 73.2491 44.3581 73.47 41.1786 73.4003C36.1249 73.2896 30.9561 73.2497 25.9025 73.2491C24.3597 73.2491 23.1233 72.0108 23.1233 70.4678C23.1233 64.8006 23.0555 59.3966 23.1148 53.7148C23.1879 46.7268 23.1217 39.5162 23.1233 32.5385C23.1238 30.9962 24.3612 29.7593 25.9036 29.7593H29.2397C29.3843 29.7593 29.523 29.7019 29.6252 29.5996C29.7275 29.4974 29.7849 29.3587 29.7849 29.2141C29.7849 29.0695 29.7275 28.9309 29.6252 28.8286C29.523 28.7264 29.3843 28.6689 29.2397 28.6689H25.9036Z" fill="#C0C0C0"/>
<path d="M32.5639 22.0015C30.4375 22.0027 28.6943 23.74 28.6943 25.8721V29.2136C28.6943 36.0965 28.8476 42.9725 28.919 49.8425C28.9673 54.48 28.6943 59.1028 28.6943 63.8067C28.6943 65.939 30.4378 67.6778 32.5639 67.6784C38.5728 67.6812 44.5698 67.6784 50.5574 67.6784C50.702 67.6784 50.8407 67.621 50.943 67.5187C51.0452 67.4165 51.1026 67.2778 51.1026 67.1332C51.1026 66.9886 51.0452 66.85 50.943 66.7477C50.8407 66.6455 50.702 66.588 50.5574 66.588C44.5694 66.588 38.5722 66.5908 32.5639 66.588C31.0286 66.5876 29.7847 65.348 29.7847 63.8067C29.7847 59.1452 30.0582 54.5183 30.0094 49.8308C29.9379 42.9521 29.7847 36.0803 29.7847 29.2136V25.8721C29.7847 24.3307 31.0277 23.0928 32.5639 23.0918C38.8911 23.0886 45.219 23.0918 51.5467 23.0918L60.2517 31.7968C60.2531 31.811 60.2538 31.8114 60.2549 31.8298C60.2609 31.9368 60.2567 32.1035 60.2464 32.2749C60.2258 32.6179 60.1793 32.9069 60.1793 33.1598C60.1793 34.3991 60.2575 35.5924 60.2346 36.7739C60.1598 40.6361 60.1793 44.4733 60.1793 48.3124C60.1793 48.4569 60.2367 48.5956 60.339 48.6979C60.4412 48.8001 60.5799 48.8575 60.7245 48.8575C60.8691 48.8575 61.0077 48.8001 61.11 48.6979C61.2122 48.5956 61.2697 48.4569 61.2697 48.3124C61.2697 44.4696 61.2505 40.6397 61.325 36.7951C61.3491 35.5527 61.2697 34.3521 61.2697 33.1598C61.2697 33.1789 61.3115 32.7254 61.3346 32.3399C61.3462 32.1471 61.3535 31.9526 61.3431 31.7681C61.338 31.6758 61.329 31.5867 61.3059 31.487C61.2827 31.3872 61.2633 31.266 61.111 31.1132H61.1099L52.1579 22.1612C52.0557 22.0589 51.917 22.0015 51.7724 22.0015C45.3699 22.0015 38.967 21.9982 32.5639 22.0015Z" fill="#C0C0C0"/>
<path d="M51.564 22.0434C51.4644 22.0847 51.3793 22.1546 51.3194 22.2443C51.2595 22.3339 51.2275 22.4393 51.2275 22.5471V28.1747C51.2275 30.3057 52.9673 32.0443 55.0982 32.0443H60.7258C60.8336 32.0443 60.939 32.0123 61.0286 31.9524C61.1183 31.8925 61.1881 31.8073 61.2294 31.7077C61.2706 31.6081 61.2814 31.4985 61.2604 31.3928C61.2394 31.2871 61.1875 31.1899 61.1113 31.1137L52.1582 22.1616C52.0819 22.0854 51.9848 22.0335 51.879 22.0124C51.7733 21.9914 51.6637 22.0022 51.564 22.0434ZM52.3179 23.8632L59.4097 30.954H55.0982C53.5567 30.954 52.3179 29.7162 52.3179 28.1747V23.8632Z" fill="#C0C0C0"/>
<path d="M61.7918 47.627C60.9672 47.627 60.1427 47.8406 59.4044 48.2669C58.434 48.8271 57.5368 49.46 56.6391 49.9792C55.1195 50.8583 53.5287 51.6585 51.9708 52.5582C50.4945 53.4108 49.5835 54.9883 49.5835 56.6929V65.2744C49.5841 66.9793 50.4945 68.5575 51.9698 69.4102C51.9712 69.4109 51.9726 69.4116 51.974 69.4123C54.4898 70.8388 57.0724 72.0464 59.3608 73.6738C59.3745 73.6837 59.3887 73.6929 59.4034 73.7015C60.8802 74.554 62.7017 74.5545 64.1781 73.7025C64.1795 73.7015 64.1809 73.7004 64.1823 73.6993C66.6629 72.2371 69.048 70.6774 71.5808 69.4272C71.5912 69.4222 71.6015 69.4169 71.6116 69.4113C73.0885 68.5587 74.0001 66.9807 74.0001 65.2755V56.694C74.0001 54.9888 73.089 53.4108 71.6127 52.5582H71.6116C69.1327 51.1271 66.6669 49.703 64.1791 48.2669C63.4409 47.8406 62.6164 47.627 61.7918 47.627ZM61.7918 48.7173C62.4277 48.7173 63.0637 48.8821 63.6339 49.2114C66.1213 50.6473 68.5877 52.0717 71.0665 53.5027C72.2071 54.1614 72.9097 55.3766 72.9097 56.694V65.2755C72.9097 66.5928 72.2076 67.808 71.0665 68.4668C68.4688 69.7521 66.0727 71.3197 63.6329 72.758H63.6318C62.4914 73.4157 61.0894 73.4155 59.9485 72.7569L59.9922 72.7846C57.5982 71.0821 54.9797 69.8629 52.515 68.4657L52.5139 68.4646L52.5118 68.4635C51.3743 67.8045 50.6743 66.5906 50.6739 65.2743V56.6929C50.6739 55.3761 51.3755 54.1603 52.516 53.5016C54.0374 52.6229 55.6289 51.823 57.1853 50.9226C58.1412 50.3699 59.0369 49.7383 59.9496 49.2114C60.5199 48.8821 61.1558 48.7173 61.7918 48.7173Z" fill="#C0C0C0"/>
<path d="M38.3677 52.1087C37.1966 52.2862 36.1278 52.9634 35.335 53.8018C33.9254 55.2922 33.1958 57.3727 33.3662 59.4166C33.3721 59.488 33.392 59.5575 33.4248 59.6212C33.4576 59.6849 33.5026 59.7415 33.5573 59.7878C33.612 59.8341 33.6753 59.8692 33.7435 59.891C33.8118 59.9128 33.8836 59.9209 33.955 59.915C34.099 59.9028 34.2323 59.8339 34.3256 59.7235C34.4188 59.613 34.4644 59.4701 34.4523 59.3261C34.3087 57.603 34.9389 55.8065 36.1273 54.5503C37.0003 53.627 38.2477 53.0059 39.3963 53.1874C39.9359 53.2726 40.4762 53.6079 40.8253 54.0531C41.1744 54.4982 41.3265 55.0182 41.2033 55.5097C41.0802 56.0009 40.6725 56.4905 40.2695 57.1006C39.8533 57.7306 39.4471 58.5961 39.7669 59.4965C39.9538 60.0227 40.3926 60.3558 40.8711 60.4921C41.3496 60.6284 41.9796 60.5333 42.3278 60.0385C42.5724 59.6912 42.6091 59.3534 42.6685 59.1493C42.695 59.0585 42.7183 59.0101 42.7314 58.9864C42.7212 58.9915 42.7454 58.9858 42.8858 59.028C43.0445 59.0756 43.3004 59.1817 43.6471 59.1153C43.6471 59.1149 43.6471 59.1145 43.6471 59.1142C44.035 59.0393 44.3077 58.7477 44.4394 58.4657C44.571 58.1837 44.6075 57.8903 44.5788 57.6053C44.5295 57.1128 44.4072 56.7855 44.4319 56.599C44.4596 56.3909 44.5787 56.2344 44.8355 56.0602C45.0922 55.886 45.4656 55.7381 45.8279 55.6205C46.2371 55.4876 46.6976 55.3067 47.1014 55.0114C47.5053 54.7161 47.8725 54.2576 47.9107 53.6622C47.9153 53.5908 47.9058 53.5191 47.8827 53.4513C47.8597 53.3835 47.8235 53.321 47.7762 53.2672C47.7289 53.2134 47.6715 53.1694 47.6073 53.1378C47.543 53.1062 47.4732 53.0876 47.4017 53.083C47.3302 53.0784 47.2584 53.0879 47.1906 53.111C47.1227 53.1342 47.0601 53.1705 47.0063 53.2179C46.9525 53.2652 46.9085 53.3228 46.877 53.3871C46.8455 53.4515 46.8269 53.5215 46.8224 53.593C46.8094 53.7969 46.7035 53.9517 46.4572 54.1318C46.2109 54.3119 45.8443 54.4687 45.4914 54.5833C45.0915 54.7132 44.6332 54.8802 44.2232 55.1583C43.8132 55.4365 43.4292 55.8691 43.3511 56.4553C43.2755 57.0266 43.4668 57.4464 43.4938 57.715C43.5033 57.81 43.4813 57.9401 43.4512 58.0046C43.4211 58.0691 43.4283 58.0464 43.4405 58.044C43.4534 58.0414 43.3736 58.0369 43.1988 57.9844C43.0235 57.9318 42.7358 57.8315 42.3842 57.9418H42.3831C42.1421 58.018 41.9443 58.192 41.8305 58.3635C41.7166 58.5352 41.6639 58.7002 41.6218 58.8448C41.5376 59.134 41.4765 59.3535 41.4365 59.4102C41.3938 59.471 41.337 59.491 41.1692 59.4432C41.0014 59.3954 40.8349 59.2451 40.7944 59.1312C40.6595 58.7515 40.847 58.2051 41.1799 57.7012C41.526 57.1773 42.0534 56.6021 42.2607 55.7749C42.4788 54.904 42.1982 54.0363 41.6835 53.3801C41.1689 52.7238 40.4146 52.2448 39.5667 52.1108C39.1601 52.0466 38.7581 52.0495 38.3677 52.1087ZM42.7111 58.9811C42.711 58.9811 42.7123 58.981 42.7122 58.9811C42.7118 58.9813 42.7114 58.9821 42.7111 58.9822C42.7111 58.9818 42.7111 58.9815 42.7111 58.9811Z" fill="#C0C0C0"/>
<path d="M34.9321 42.8652C34.8604 42.865 34.7894 42.8788 34.723 42.906C34.6567 42.9332 34.5964 42.9732 34.5456 43.0238C34.4947 43.0743 34.4544 43.1344 34.4268 43.2006C34.3992 43.2667 34.3849 43.3377 34.3848 43.4094C34.3845 43.5538 34.4415 43.6924 34.5433 43.7948C34.6451 43.8972 34.7834 43.9551 34.9278 43.9556C42.0644 43.9785 49.2007 44.0019 56.3373 44.0248C56.4089 44.0251 56.4799 44.0113 56.5461 43.9842C56.6124 43.957 56.6726 43.9171 56.7235 43.8667C56.7743 43.8162 56.8147 43.7563 56.8423 43.6902C56.87 43.6242 56.8844 43.5534 56.8846 43.4818C56.8849 43.4102 56.8711 43.3392 56.844 43.273C56.8168 43.2067 56.7769 43.1465 56.7265 43.0956C56.676 43.0448 56.6161 43.0044 56.5501 42.9768C56.484 42.9491 56.4132 42.9347 56.3416 42.9345C49.205 42.9116 42.0687 42.8881 34.9321 42.8652Z" fill="#C0C0C0"/>
<path d="M34.9321 38.749C34.8604 38.7487 34.7894 38.7626 34.723 38.7898C34.6567 38.817 34.5964 38.857 34.5456 38.9076C34.4947 38.9581 34.4544 39.0182 34.4268 39.0844C34.3992 39.1505 34.3849 39.2215 34.3848 39.2932C34.3845 39.4376 34.4415 39.5762 34.5433 39.6786C34.6451 39.781 34.7834 39.8389 34.9278 39.8394C42.0644 39.8623 49.2007 39.8857 56.3373 39.9086C56.4089 39.9089 56.4799 39.8951 56.5461 39.8679C56.6124 39.8408 56.6726 39.8009 56.7235 39.7505C56.7743 39.7 56.8147 39.6401 56.8423 39.574C56.87 39.508 56.8844 39.4372 56.8846 39.3656C56.8849 39.294 56.8711 39.223 56.844 39.1568C56.8168 39.0905 56.7769 39.0303 56.7265 38.9794C56.676 38.9286 56.6161 38.8882 56.5501 38.8606C56.484 38.8329 56.4132 38.8185 56.3416 38.8182C49.205 38.7953 42.0687 38.7719 34.9321 38.749Z" fill="#C0C0C0"/>
<path d="M34.9321 34.6328C34.8604 34.6325 34.7894 34.6464 34.723 34.6736C34.6567 34.7008 34.5964 34.7408 34.5456 34.7914C34.4947 34.8419 34.4544 34.902 34.4268 34.9681C34.3992 35.0343 34.3849 35.1053 34.3848 35.1769C34.3845 35.3214 34.4415 35.46 34.5433 35.5624C34.6451 35.6648 34.7834 35.7226 34.9278 35.7232C42.0644 35.7461 39.4336 35.7386 46.5696 35.7615C46.6412 35.7617 46.7121 35.7477 46.7783 35.7204C46.8445 35.6932 46.9047 35.6531 46.9554 35.6026C47.0062 35.5521 47.0464 35.4921 47.074 35.426C47.1015 35.3599 47.1157 35.289 47.1159 35.2174C47.1162 35.073 47.0591 34.9344 46.9573 34.832C46.8555 34.7295 46.7172 34.6717 46.5728 34.6711C39.4368 34.6483 42.0687 34.6557 34.9321 34.6328Z" fill="#C0C0C0"/>
<path d="M61.834 69.004C57.3078 69.004 53.625 65.3217 53.625 60.795C53.625 56.2704 57.3072 52.5898 61.834 52.5898C66.358 52.5898 70.0386 56.2704 70.0386 60.795C70.0386 65.3217 66.358 69.004 61.834 69.004ZM61.834 53.6808C57.9091 53.6808 54.7154 56.8723 54.7154 60.7955C54.7154 64.7204 57.9086 67.9141 61.834 67.9141C65.7572 67.9141 68.9482 64.7209 68.9482 60.7955C68.9482 56.8723 65.7572 53.6808 61.834 53.6808Z" fill="#C0C0C0"/>
<path d="M61.8315 65.3526C60.426 65.3526 59.2827 64.2071 59.2827 62.8C59.2827 62.4985 59.5264 62.2548 59.8279 62.2548C60.1294 62.2548 60.3731 62.4985 60.3731 62.8C60.3731 63.6063 61.0273 64.2622 61.8315 64.2622C62.6362 64.2622 63.2904 63.6063 63.2904 62.8C63.2904 61.9958 62.6362 61.3416 61.8315 61.3416C60.426 61.3416 59.2827 60.1962 59.2827 58.789C59.2827 57.3835 60.426 56.2402 61.8315 56.2402C63.237 56.2402 64.3808 57.3835 64.3808 58.789C64.3808 59.0905 64.1371 59.3342 63.8356 59.3342C63.5341 59.3342 63.2904 59.0905 63.2904 58.789C63.2904 57.9849 62.6362 57.3306 61.8315 57.3306C61.0273 57.3306 60.3731 57.9849 60.3731 58.789C60.3731 59.5954 61.0273 60.2512 61.8315 60.2512C63.237 60.2512 64.3808 61.3945 64.3808 62.8C64.3808 64.2077 63.237 65.3526 61.8315 65.3526Z" fill="#C0C0C0"/>
<path d="M61.8318 66.4043C61.5303 66.4043 61.2866 66.1606 61.2866 65.8591V64.8069C61.2866 64.5054 61.5303 64.2617 61.8318 64.2617C62.1333 64.2617 62.377 64.5054 62.377 64.8069V65.8591C62.377 66.1606 62.1333 66.4043 61.8318 66.4043Z" fill="#C0C0C0"/>
<path d="M61.8318 57.3321C61.5303 57.3321 61.2866 57.0884 61.2866 56.7869V55.7346C61.2866 55.4332 61.5303 55.1895 61.8318 55.1895C62.1333 55.1895 62.377 55.4332 62.377 55.7346V56.7869C62.377 57.0878 62.1333 57.3321 61.8318 57.3321Z" fill="#C0C0C0"/>
</svg>
