<svg width="22" height="21" viewBox="0 0 22 21" fill="none" xmlns="http://www.w3.org/2000/svg">
<path d="M0.173493 20.9996C0.13876 20.9996 0.104282 20.9899 0.0748866 20.971C0.0280401 20.9408 0 20.8911 0 20.8381V6.13575C0 6.06862 0.0446439 6.00844 0.112076 5.9847L7.22978 3.4744C7.28298 3.45555 7.3427 3.46225 7.3898 3.49254C7.43665 3.52267 7.46469 3.57236 7.46469 3.62544V18.3278C7.46469 18.395 7.42004 18.4551 7.35261 18.4789L0.23491 20.9891C0.215002 20.9961 0.194248 20.9996 0.173493 20.9996ZM0.346986 6.24728V20.6041L7.1177 18.2163V3.85939L0.346986 6.24728Z" fill="#CDAC6D"/>
<path d="M14.4088 20.9997C14.3895 21.0003 14.3762 20.9975 14.3603 20.9932C14.3602 20.9932 14.3601 20.9931 14.3599 20.9931C14.3597 20.9931 14.3596 20.993 14.3596 20.993C14.3552 20.9919 14.3508 20.9904 14.3466 20.9889L7.22975 18.4789C7.16232 18.4551 7.11768 18.395 7.11768 18.3278V3.62544C7.11768 3.57236 7.14563 3.52267 7.19256 3.49254C7.23958 3.46233 7.29939 3.45563 7.35259 3.4744L12.5657 5.31197C12.6331 5.33571 12.6778 5.39589 12.6778 5.46302C12.6778 5.55222 12.6001 5.6255 12.5043 5.6255C12.4753 5.6255 12.4479 5.61903 12.4239 5.60744L7.46466 3.85931V18.2163L14.2353 20.6042V8.92724C14.2353 8.83803 14.313 8.76571 14.4088 8.76571C14.5046 8.76571 14.5823 8.83803 14.5823 8.92724V20.6042L21.353 18.2163V3.85939L19.0881 4.65817C18.999 4.68987 18.8984 4.64768 18.8645 4.5643C18.8305 4.48093 18.8756 4.38762 18.9653 4.35607L21.4651 3.4744C21.5183 3.45555 21.578 3.46225 21.6251 3.49254C21.6719 3.52267 21.7 3.57236 21.7 3.62544V18.3278C21.7 18.395 21.6553 18.4551 21.5879 18.4789L14.4708 20.989C14.4677 20.9901 14.4645 20.9911 14.4613 20.9921C14.4611 20.9921 14.4609 20.9923 14.4606 20.9923C14.4605 20.9924 14.4603 20.9924 14.4601 20.9924C14.4436 20.9971 14.4265 20.9996 14.4095 20.9997C14.4094 20.9997 14.409 20.9997 14.4088 20.9997C14.4089 20.9997 14.4088 20.9997 14.4088 20.9997Z" fill="#CDAC6D"/>
<path d="M15.5766 10.8902C15.5174 10.8902 15.4623 10.8621 15.4304 10.8157C15.2806 10.5975 11.7607 5.45206 11.7607 3.55281C11.7607 1.59377 13.4725 0 15.5766 0C17.6806 0 19.3923 1.59377 19.3923 3.55281C19.3923 5.45206 15.8726 10.5975 15.7227 10.8157C15.6908 10.8621 15.6358 10.8902 15.5766 10.8902ZM15.5766 0.323075C13.6638 0.323075 12.1077 1.77195 12.1077 3.55281C12.1077 5.14768 14.8997 9.41431 15.5766 10.4252C16.2534 9.41423 19.0453 5.14744 19.0453 3.55281C19.0453 1.77195 17.4892 0.323075 15.5766 0.323075Z" fill="#CDAC6D"/>
<path d="M15.5761 5.36928C14.5441 5.36928 13.7046 4.58762 13.7046 3.62676C13.7046 2.66518 14.5441 1.88281 15.5761 1.88281C16.6088 1.88281 17.4491 2.66518 17.4491 3.62676C17.4491 4.58762 16.6088 5.36928 15.5761 5.36928ZM15.5761 2.20589C14.7355 2.20589 14.0516 2.84328 14.0516 3.62676C14.0516 4.40944 14.7355 5.04621 15.5761 5.04621C16.4175 5.04621 17.1021 4.40944 17.1021 3.62676C17.1021 2.84328 16.4175 2.20589 15.5761 2.20589Z" fill="#CDAC6D"/>
</svg>
