<svg width="24" height="16" viewBox="0 0 24 16" fill="none" xmlns="http://www.w3.org/2000/svg">
<path d="M21.7277 0H0.6238C0.279795 0 0 0.279344 0 0.622898V12.6925C0 13.0358 0.279795 13.3152 0.6238 13.3152H3.45387C3.56145 14.5287 4.5839 15.4839 5.82699 15.4839C7.07008 15.4839 8.09263 14.5287 8.20022 13.3152H15.7998C15.9074 14.5287 16.9299 15.4839 18.173 15.4839C19.4161 15.4839 20.4385 14.5287 20.5461 13.3152H23.3762C23.7202 13.3152 24 13.0358 24 12.6925V2.26861C24 1.01765 22.9807 0 21.7277 0ZM11.4337 2.89151V8.4309H5.98695V2.89151H11.4337ZM17.5145 2.89151V8.4309H11.8573V2.89151H17.5145ZM23.5765 2.89151V9.84517H19.6273L17.938 8.53858V2.89151H23.5765ZM5.56343 8.4309H0.423518V2.89151H5.56343V8.4309ZM5.82699 15.061C4.74607 15.061 3.86667 14.1832 3.86667 13.104C3.86667 12.0248 4.74607 11.1467 5.82699 11.1467C6.90699 11.1467 7.7856 12.0232 7.78726 13.1009C7.78725 13.1019 7.78669 13.1028 7.78669 13.1038C7.78669 13.1048 7.78726 13.1056 7.78727 13.1067C7.7858 14.1846 6.9071 15.061 5.82699 15.061ZM18.173 15.061C17.0929 15.061 16.2142 14.1846 16.2127 13.1067C16.2127 13.1056 16.2133 13.1048 16.2133 13.1038C16.2133 13.1028 16.2128 13.1019 16.2127 13.1009C16.2144 12.0232 17.093 11.1467 18.173 11.1467C19.2539 11.1467 20.1333 12.0248 20.1333 13.104C20.1333 14.1832 19.2539 15.061 18.173 15.061ZM23.3762 12.8924H20.5461C20.4384 11.6788 19.416 10.7239 18.173 10.7239C16.9301 10.7239 15.9076 11.6788 15.7998 12.8924H8.20019C8.09242 11.6788 7.06995 10.7239 5.82699 10.7239C4.58403 10.7239 3.56164 11.6788 3.45389 12.8924H0.6238C0.513371 12.8924 0.423518 12.8027 0.423518 12.6925V11.8076H1.41169C1.52863 11.8076 1.62345 11.713 1.62345 11.5962C1.62345 11.4793 1.52863 11.3848 1.41169 11.3848H0.423518V10.733H1.41169C1.52863 10.733 1.62345 10.6384 1.62345 10.5215C1.62345 10.4047 1.52863 10.3101 1.41169 10.3101H0.423518V8.85374H17.6538L19.4253 10.2238C19.4624 10.2525 19.508 10.268 19.5549 10.268H23.5765V10.8145H22.8346C22.7177 10.8145 22.6228 10.9091 22.6228 11.0259C22.6228 11.1428 22.7177 11.2373 22.8346 11.2373H23.5765V11.8363H22.8346C22.7177 11.8363 22.6228 11.9309 22.6228 12.0477C22.6228 12.1646 22.7177 12.2591 22.8346 12.2591H23.5765V12.6925C23.5765 12.8027 23.4866 12.8924 23.3762 12.8924ZM23.5765 2.46867H0.423518V0.622898C0.423518 0.512647 0.513371 0.422835 0.6238 0.422835H21.7277C22.7471 0.422835 23.5765 1.25075 23.5765 2.26861V2.46867Z" fill="#CDAC6D"/>
<path d="M13.5786 6.76647C13.62 6.80776 13.6742 6.82841 13.7284 6.82841C13.7825 6.82841 13.8367 6.80776 13.8781 6.76647L15.7927 4.85504C15.8754 4.77245 15.8754 4.63866 15.7927 4.55608C15.71 4.47349 15.576 4.47349 15.4933 4.55608L13.5786 6.46751C13.4959 6.5501 13.4959 6.68388 13.5786 6.76647Z" fill="#CDAC6D"/>
<path d="M7.60305 6.76647C7.64441 6.80776 7.69859 6.82841 7.75277 6.82841C7.80696 6.82841 7.86114 6.80776 7.90249 6.76647L9.81711 4.85504C9.89983 4.77245 9.89983 4.63866 9.81711 4.55608C9.7344 4.47349 9.60039 4.47349 9.51767 4.55608L7.60305 6.46751C7.52034 6.5501 7.52034 6.68388 7.60305 6.76647Z" fill="#CDAC6D"/>
<path d="M1.88626 6.76647C1.92762 6.80776 1.9818 6.82841 2.03598 6.82841C2.09016 6.82841 2.14434 6.80776 2.1857 6.76647L4.10032 4.85504C4.18304 4.77245 4.18304 4.63866 4.10032 4.55608C4.0176 4.47349 3.8836 4.47349 3.80088 4.55608L1.88626 6.46751C1.80354 6.5501 1.80354 6.68388 1.88626 6.76647Z" fill="#CDAC6D"/>
<path d="M18.173 11.7529C17.4266 11.7529 16.8193 12.3591 16.8193 13.1042C16.8193 13.8496 17.4266 14.4559 18.173 14.4559C18.9193 14.4559 19.5266 13.8496 19.5266 13.1042C19.5266 12.3591 18.9193 11.7529 18.173 11.7529ZM18.173 14.0331C17.6602 14.0331 17.2429 13.6165 17.2429 13.1042C17.2429 12.5922 17.6602 12.1758 18.173 12.1758C18.6859 12.1758 19.1031 12.5922 19.1031 13.1042C19.1031 13.6165 18.6859 14.0331 18.173 14.0331Z" fill="#CDAC6D"/>
<path d="M5.82693 11.7529C5.0804 11.7529 4.47314 12.3591 4.47314 13.1042C4.47314 13.8496 5.0804 14.4559 5.82693 14.4559C6.57326 14.4559 7.18052 13.8496 7.18052 13.1042C7.18052 12.3591 6.57326 11.7529 5.82693 11.7529ZM5.82693 14.0331C5.31398 14.0331 4.89666 13.6165 4.89666 13.1042C4.89666 12.5922 5.31398 12.1758 5.82693 12.1758C6.33979 12.1758 6.757 12.5922 6.757 13.1042C6.757 13.6165 6.33979 14.0331 5.82693 14.0331Z" fill="#CDAC6D"/>
</svg>
