<svg width="24" height="20" viewBox="0 0 24 20" fill="none" xmlns="http://www.w3.org/2000/svg">
<path d="M20.7123 16.939H8.13699L2.87671 0.518013H0V0H3.28767L8.54795 16.421H20.7123V16.939Z" fill="#CDAC6D"/>
<path d="M20.0549 14.5819H7.78094V14.0639H20.0549C20.4385 14.0639 20.6303 13.6236 20.6303 13.6236L23.4522 5.23181C23.4248 4.9469 23.1782 4.79149 23.0686 4.73969H4.43848V4.22168H23.1782L23.233 4.24758C23.2604 4.24758 24.0001 4.53249 24.0001 5.28361V5.36131L21.1508 13.8049C21.1508 13.8567 20.822 14.5819 20.0549 14.5819Z" fill="#CDAC6D"/>
<path d="M9.83557 19.7359C8.98626 19.7359 8.27393 19.0884 8.27393 18.2595C8.27393 17.4307 8.95886 16.7832 9.83557 16.7832C10.7123 16.7832 11.3972 17.4307 11.3972 18.2595C11.3972 19.0884 10.6849 19.7359 9.83557 19.7359ZM9.83557 17.3271C9.28762 17.3271 8.82187 17.7674 8.82187 18.2854C8.82187 18.8035 9.28762 19.2438 9.83557 19.2438C10.3835 19.2438 10.8493 18.8035 10.8493 18.2854C10.8219 17.7415 10.3835 17.3271 9.83557 17.3271Z" fill="#CDAC6D"/>
<path d="M19.1505 19.7359C18.3012 19.7359 17.5889 19.0884 17.5889 18.2595C17.5889 17.4307 18.2738 16.7832 19.1505 16.7832C20.0272 16.7832 20.7122 17.4307 20.7122 18.2595C20.7122 19.0884 20.0272 19.7359 19.1505 19.7359ZM19.1505 17.3271C18.6026 17.3271 18.1368 17.7674 18.1368 18.2854C18.1368 18.8035 18.6026 19.2438 19.1505 19.2438C19.6985 19.2438 20.1642 18.8035 20.1642 18.2854C20.1642 17.7415 19.6985 17.3271 19.1505 17.3271Z" fill="#CDAC6D"/>
</svg>
