<svg width="24" height="24" viewBox="0 0 24 24" fill="none" xmlns="http://www.w3.org/2000/svg">
<path d="M15.6476 23.1175H8.3571C8.24159 23.1175 8.14746 23.0234 8.14746 22.9078V4.72447C8.14746 4.67741 8.16457 4.63034 8.19452 4.59184L11.8398 0.0738031C11.9168 -0.024601 12.0836 -0.024601 12.1649 0.0738031L15.8102 4.59184C15.8401 4.63034 15.8572 4.67313 15.8572 4.72447V22.9078C15.8572 23.0234 15.7631 23.1175 15.6476 23.1175ZM8.56247 22.6982H15.4379V4.7972L12.0023 0.540153L8.56247 4.7972V22.6982Z" fill="#CDAC6D"/>
<path d="M13.8719 23.1174C13.7563 23.1174 13.6622 23.0233 13.6622 22.9078V19.4422C13.6622 18.5266 12.9178 17.7822 12.0022 17.7822C11.0866 17.7822 10.3421 18.5266 10.3421 19.4422V22.9078C10.3421 23.0233 10.248 23.1174 10.1325 23.1174C10.017 23.1174 9.92285 23.0233 9.92285 22.9078V19.4422C9.92285 18.2956 10.8556 17.3672 11.9979 17.3672C13.1402 17.3672 14.0729 18.2999 14.0729 19.4422V22.9078C14.0772 23.0233 13.9831 23.1174 13.8719 23.1174Z" fill="#CDAC6D"/>
<path d="M15.6476 8.41245H8.3571C8.24159 8.41245 8.14746 8.31833 8.14746 8.20281C8.14746 8.08729 8.24159 7.99316 8.3571 7.99316H15.6518C15.7674 7.99316 15.8615 8.08729 15.8615 8.20281C15.8572 8.31833 15.7631 8.41245 15.6476 8.41245Z" fill="#CDAC6D"/>
<path d="M12.049 14.4667C11.9335 14.4667 11.8394 14.3726 11.8394 14.2571V9.99578C11.8394 9.88026 11.9335 9.78613 12.049 9.78613C12.1645 9.78613 12.2586 9.88026 12.2586 9.99578V14.2571C12.2586 14.3769 12.1645 14.4667 12.049 14.4667Z" fill="#CDAC6D"/>
<path d="M13.5039 11.8998H10.5988C10.4833 11.8998 10.3892 11.8056 10.3892 11.6901C10.3892 11.5746 10.4833 11.4805 10.5988 11.4805H13.5039C13.6194 11.4805 13.7135 11.5746 13.7135 11.6901C13.7135 11.8056 13.6194 11.8998 13.5039 11.8998Z" fill="#CDAC6D"/>
<path d="M0.210753 12.7248C0.129463 12.7248 0.0567295 12.6777 0.0182236 12.6007C-0.0288393 12.4937 0.0182235 12.3739 0.125185 12.3269L8.27134 8.71158C8.3783 8.66452 8.49809 8.71158 8.54516 8.81854C8.59222 8.9255 8.54516 9.0453 8.4382 9.09236L0.292044 12.7034C0.266373 12.7162 0.236424 12.7248 0.210753 12.7248Z" fill="#CDAC6D"/>
<path d="M8.35667 23.1172H1.59246C1.47694 23.1172 1.38281 23.023 1.38281 22.9075V11.8991C1.38281 11.7836 1.47694 11.6895 1.59246 11.6895C1.70797 11.6895 1.8021 11.7836 1.8021 11.8991V22.6979H8.35667C8.47219 22.6979 8.56632 22.792 8.56632 22.9075C8.56632 23.023 8.47219 23.1172 8.35667 23.1172Z" fill="#CDAC6D"/>
<path d="M23.7934 12.7248C23.7635 12.7248 23.7378 12.7205 23.7079 12.7076L15.5617 9.09236C15.4547 9.0453 15.4077 8.92123 15.4547 8.81854C15.5018 8.71158 15.6259 8.66452 15.7286 8.71158L23.8747 12.3269C23.9817 12.3739 24.0287 12.498 23.9817 12.6007C23.9517 12.6777 23.8747 12.7248 23.7934 12.7248Z" fill="#CDAC6D"/>
<path d="M22.4114 23.1172H15.6471C15.5316 23.1172 15.4375 23.023 15.4375 22.9075C15.4375 22.792 15.5316 22.6979 15.6471 22.6979H22.2017V11.8991C22.2017 11.7836 22.2958 11.6895 22.4114 11.6895C22.5269 11.6895 22.621 11.7836 22.621 11.8991V22.9075C22.621 23.023 22.5269 23.1172 22.4114 23.1172Z" fill="#CDAC6D"/>
</svg>
