<svg width="24" height="23" viewBox="0 0 24 23" fill="none" xmlns="http://www.w3.org/2000/svg">
<path d="M5.6356 21.5767C5.6356 21.6414 5.66131 21.7034 5.70707 21.7492C5.75283 21.795 5.81488 21.8207 5.87959 21.8207C5.9443 21.8207 6.00636 21.795 6.05212 21.7492C6.09788 21.7034 6.12358 21.6414 6.12358 21.5767V11.478C6.1623 11.4847 6.20143 11.4888 6.2407 11.4902C6.44282 11.4895 6.63644 11.4088 6.77913 11.2656C6.92182 11.1225 7.00195 10.9286 7.00195 10.7265C6.99937 10.4777 6.89876 10.2401 6.72196 10.0651C6.54516 9.89012 6.30645 9.79198 6.05771 9.79199H3.21035C2.9597 9.79199 2.71928 9.8914 2.54181 10.0684C2.36434 10.2454 2.26432 10.4856 2.26367 10.7362C2.26399 10.837 2.2842 10.9368 2.32315 11.0298C2.3621 11.1228 2.41902 11.2072 2.49065 11.2781C2.56228 11.3491 2.6472 11.4052 2.74056 11.4432C2.83391 11.4813 2.93386 11.5006 3.03468 11.4999C3.07394 11.4984 3.11306 11.4943 3.15179 11.4877V21.5767C3.15179 21.6414 3.1775 21.7034 3.22326 21.7492C3.26901 21.795 3.33107 21.8207 3.39578 21.8207C3.46049 21.8207 3.52255 21.795 3.56831 21.7492C3.61407 21.7034 3.63977 21.6414 3.63977 21.5767V11.2559C3.64207 11.2397 3.64207 11.2233 3.63977 11.2071C3.74853 11.0743 3.80801 10.9079 3.80812 10.7362C3.80767 10.6461 3.7852 10.5574 3.74268 10.4779C3.70016 10.3983 3.63887 10.3304 3.56414 10.28H5.721C5.64626 10.3304 5.58497 10.3983 5.54245 10.4779C5.49993 10.5574 5.47747 10.6461 5.47701 10.7362C5.48073 10.9052 5.54182 11.0678 5.65024 11.1974C5.64794 11.2136 5.64794 11.23 5.65024 11.2462L5.6356 21.5767ZM2.75897 10.7265C2.75858 10.6428 2.78112 10.5605 2.82413 10.4887C2.86713 10.4169 2.92898 10.3582 3.00296 10.319C2.99076 10.3476 2.98414 10.3782 2.98344 10.4093C2.98344 10.474 3.00915 10.5361 3.0549 10.5818C3.10066 10.6276 3.16272 10.6533 3.22743 10.6533C3.24684 10.6533 3.26546 10.661 3.27919 10.6747C3.29291 10.6884 3.30063 10.7071 3.30063 10.7265C3.30063 10.7996 3.27158 10.8697 3.21987 10.9214C3.16817 10.9731 3.09804 11.0022 3.02492 11.0022C2.9518 11.0022 2.88167 10.9731 2.82996 10.9214C2.77826 10.8697 2.74921 10.7996 2.74921 10.7265H2.75897ZM6.51397 10.7265C6.51757 10.7647 6.51316 10.8032 6.50101 10.8397C6.48885 10.8761 6.46923 10.9096 6.44339 10.9379C6.41755 10.9663 6.38606 10.989 6.35095 11.0045C6.31584 11.0201 6.27787 11.0281 6.23948 11.0281C6.20109 11.0281 6.16312 11.0201 6.12801 11.0045C6.09289 10.989 6.06141 10.9663 6.03557 10.9379C6.00973 10.9096 5.99011 10.8761 5.97795 10.8397C5.9658 10.8032 5.96138 10.7647 5.96499 10.7265C5.96498 10.7075 5.97236 10.6892 5.98556 10.6756C5.99876 10.6619 6.01676 10.6539 6.03575 10.6533C6.10046 10.6533 6.16252 10.6276 6.20827 10.5818C6.25403 10.5361 6.27974 10.474 6.27974 10.4093C6.28019 10.3783 6.27438 10.3476 6.26266 10.319C6.33818 10.357 6.40167 10.4152 6.44604 10.4871C6.49042 10.5591 6.51393 10.6419 6.51397 10.7265Z" fill="#CDAC6D"/>
<path d="M4.39355 11.0487V21.3792C4.39355 21.4439 4.41926 21.506 4.46502 21.5517C4.51077 21.5975 4.57283 21.6232 4.63754 21.6232C4.70225 21.6232 4.76431 21.5975 4.81007 21.5517C4.85583 21.506 4.88153 21.4439 4.88153 21.3792V11.0487C4.88153 10.984 4.85583 10.9219 4.81007 10.8762C4.76431 10.8304 4.70225 10.8047 4.63754 10.8047C4.57283 10.8047 4.51077 10.8304 4.46502 10.8762C4.41926 10.9219 4.39355 10.984 4.39355 11.0487Z" fill="#CDAC6D"/>
<path d="M20.348 21.5767C20.348 21.6414 20.3737 21.7034 20.4195 21.7492C20.4652 21.795 20.5273 21.8207 20.592 21.8207C20.6567 21.8207 20.7188 21.795 20.7645 21.7492C20.8103 21.7034 20.836 21.6414 20.836 21.5767V11.478C20.8747 11.4846 20.9138 11.4886 20.9531 11.4902C21.1555 11.4895 21.3493 11.4088 21.4924 11.2658C21.6355 11.1227 21.7162 10.9288 21.7168 10.7265C21.7136 10.4788 21.6135 10.2422 21.4379 10.0675C21.2622 9.8928 21.0251 9.79389 20.7774 9.79199H17.9301C17.6797 9.79199 17.4395 9.89147 17.2624 10.0686C17.0853 10.2456 16.9858 10.4858 16.9858 10.7362C16.9858 10.9384 17.066 11.1322 17.2087 11.2754C17.3513 11.4185 17.545 11.4993 17.7471 11.4999C17.7864 11.4985 17.8255 11.4944 17.8642 11.4877V21.5767C17.8642 21.6414 17.8899 21.7034 17.9357 21.7492C17.9814 21.795 18.0435 21.8207 18.1082 21.8207C18.1729 21.8207 18.235 21.795 18.2807 21.7492C18.3265 21.7034 18.3522 21.6414 18.3522 21.5767C18.3522 21.5767 18.3522 11.2144 18.3522 11.1974C18.4609 11.0645 18.5204 10.8982 18.5205 10.7265C18.5201 10.6363 18.4976 10.5476 18.4551 10.4681C18.4126 10.3886 18.3513 10.3207 18.2765 10.2702H20.4334C20.3587 10.3207 20.2974 10.3886 20.2549 10.4681C20.2123 10.5476 20.1899 10.6363 20.1894 10.7265C20.1895 10.8982 20.249 11.0645 20.3578 11.1974C20.3529 11.2144 20.348 21.5767 20.348 21.5767ZM17.4738 10.7265C17.4732 10.6427 17.4956 10.5604 17.5386 10.4885C17.5817 10.4166 17.6437 10.358 17.7178 10.319C17.7061 10.3476 17.7003 10.3783 17.7007 10.4093C17.7007 10.474 17.7264 10.5361 17.7722 10.5818C17.8179 10.6276 17.88 10.6533 17.9447 10.6533C17.9637 10.6539 17.9817 10.6619 17.9949 10.6756C18.0081 10.6892 18.0155 10.7075 18.0155 10.7265C18.0191 10.7647 18.0147 10.8032 18.0025 10.8397C17.9904 10.8761 17.9707 10.9096 17.9449 10.9379C17.9191 10.9663 17.8876 10.989 17.8525 11.0045C17.8173 11.0201 17.7794 11.0281 17.741 11.0281C17.7026 11.0281 17.6646 11.0201 17.6295 11.0045C17.5944 10.989 17.5629 10.9663 17.5371 10.9379C17.5112 10.9096 17.4916 10.8761 17.4795 10.8397C17.4673 10.8032 17.4629 10.7647 17.4665 10.7265H17.4738ZM21.2288 10.7265C21.2288 10.7996 21.1998 10.8697 21.1481 10.9214C21.0964 10.9731 21.0262 11.0022 20.9531 11.0022C20.88 11.0022 20.8099 10.9731 20.7582 10.9214C20.7064 10.8697 20.6774 10.7996 20.6774 10.7265C20.6774 10.7071 20.6851 10.6884 20.6988 10.6747C20.7126 10.661 20.7312 10.6533 20.7506 10.6533C20.8153 10.6533 20.8774 10.6276 20.9231 10.5818C20.9689 10.5361 20.9946 10.474 20.9946 10.4093C20.9939 10.3782 20.9873 10.3476 20.9751 10.319C21.0509 10.3569 21.1147 10.415 21.1595 10.4869C21.2043 10.5588 21.2283 10.6417 21.2288 10.7265Z" fill="#CDAC6D"/>
<path d="M19.106 11.0487V21.3792C19.106 21.4439 19.1317 21.506 19.1774 21.5517C19.2232 21.5975 19.2852 21.6232 19.3499 21.6232C19.4147 21.6232 19.4767 21.5975 19.5225 21.5517C19.5682 21.506 19.5939 21.4439 19.5939 21.3792V11.0487C19.5939 10.984 19.5682 10.9219 19.5225 10.8762C19.4767 10.8304 19.4147 10.8047 19.3499 10.8047C19.2852 10.8047 19.2232 10.8304 19.1774 10.8762C19.1317 10.9219 19.106 10.984 19.106 11.0487Z" fill="#CDAC6D"/>
<path d="M16.2808 22.6385C16.2808 22.7032 16.3065 22.7653 16.3522 22.811C16.398 22.8568 16.46 22.8825 16.5248 22.8825H21.8925C21.9572 22.8825 22.0193 22.8568 22.065 22.811C22.1108 22.7653 22.1365 22.7032 22.1365 22.6385C22.1365 22.5738 22.1108 22.5118 22.065 22.466C22.0193 22.4202 21.9572 22.3945 21.8925 22.3945H16.5248C16.46 22.3945 16.398 22.4202 16.3522 22.466C16.3065 22.5118 16.2808 22.5738 16.2808 22.6385Z" fill="#CDAC6D"/>
<path d="M1.84131 22.6385C1.84131 22.7032 1.86701 22.7653 1.91277 22.811C1.95853 22.8568 2.02059 22.8825 2.0853 22.8825H14.8972C14.9619 22.8825 15.0239 22.8568 15.0697 22.811C15.1155 22.7653 15.1412 22.7032 15.1412 22.6385C15.1412 22.5738 15.1155 22.5118 15.0697 22.466C15.0239 22.4202 14.9619 22.3945 14.8972 22.3945H2.0853C2.02059 22.3945 1.95853 22.4202 1.91277 22.466C1.86701 22.5118 1.84131 22.5738 1.84131 22.6385Z" fill="#CDAC6D"/>
<path d="M0.243373 9.19667H23.7444C23.7979 9.19928 23.8508 9.18422 23.8949 9.15379C23.939 9.12336 23.9719 9.07927 23.9884 9.02831C24.004 8.97966 24.0039 8.92735 23.9881 8.87876C23.9723 8.83017 23.9417 8.78775 23.9006 8.75748L12.1379 0.164179C12.0961 0.133644 12.0457 0.117188 11.9939 0.117188C11.9421 0.117188 11.8917 0.133644 11.8499 0.164179L0.0994188 8.75748C0.0582708 8.78775 0.0276596 8.83017 0.011901 8.87876C-0.00385761 8.92735 -0.00396882 8.97966 0.0115827 9.02831C0.0275327 9.07723 0.0585385 9.11985 0.100168 9.15009C0.141798 9.18033 0.191921 9.19663 0.243373 9.19667ZM11.9939 0.664357L22.9978 8.71601H0.98998L11.9939 0.664357Z" fill="#CDAC6D"/>
</svg>
