<svg width="23" height="22" viewBox="0 0 23 22" fill="none" xmlns="http://www.w3.org/2000/svg">
<path d="M17.3293 21.7057C16.1072 21.6924 14.916 21.3198 13.9041 20.6344C12.8922 19.949 12.1043 18.981 11.6385 17.8511L8.70242 10.7627C8.69017 10.7331 8.68618 10.7007 8.69088 10.669C8.69557 10.6373 8.70878 10.6074 8.72909 10.5826C8.74955 10.5581 8.7762 10.5395 8.80628 10.5287C8.83635 10.5179 8.86876 10.5154 8.90016 10.5213C12.5526 11.2462 17.2071 9.3179 19.2767 6.2233C19.2945 6.19662 19.3191 6.17527 19.3481 6.16155C19.3771 6.14782 19.4093 6.14224 19.4412 6.14539C19.4731 6.14854 19.5035 6.16031 19.5292 6.17944C19.555 6.19857 19.575 6.22433 19.5872 6.25398L22.5235 13.3424C23.7368 16.2721 22.5575 19.6859 19.8383 21.114C19.7257 21.1765 19.6023 21.2376 19.4525 21.3044C19.2904 21.3667 19.1596 21.411 19.032 21.4474C18.4807 21.619 17.9067 21.7061 17.3293 21.7057ZM9.15287 10.9253L11.9657 17.7157C13.1097 20.4785 16.1698 21.9684 18.9308 21.1083C19.0523 21.0736 19.1736 21.0323 19.3173 20.9776C19.4482 20.9188 19.5631 20.862 19.6712 20.8027C22.2337 19.4578 23.3418 16.2402 22.1974 13.4779L19.3836 6.68743C17.2229 9.64447 12.7741 11.4887 9.15287 10.9253Z" fill="#CDAC6D"/>
<path d="M12.8493 14.3289C12.8202 14.3288 12.7916 14.3215 12.766 14.3078C12.7404 14.294 12.7185 14.2742 12.7023 14.25C12.6862 14.2258 12.6762 14.198 12.6733 14.1691C12.6703 14.1401 12.6746 14.1109 12.6856 14.084C12.8591 13.6664 13.1911 13.3346 13.6088 13.1615C14.0266 12.9883 14.4959 12.9878 14.914 13.1602C14.9573 13.1781 14.9918 13.2126 15.0098 13.256C15.0277 13.2993 15.0277 13.3481 15.0098 13.3914C14.9918 13.4348 14.9574 13.4692 14.914 13.4872C14.8706 13.5052 14.8219 13.5052 14.7785 13.4872C14.4473 13.3506 14.0755 13.3508 13.7445 13.488C13.4135 13.6251 13.1504 13.8879 13.0129 14.2187C12.9996 14.2512 12.9769 14.279 12.9478 14.2986C12.9187 14.3182 12.8844 14.3288 12.8493 14.3289Z" fill="#CDAC6D"/>
<path d="M17.0622 12.584C17.0331 12.584 17.0045 12.5768 16.9788 12.5631C16.9531 12.5494 16.9313 12.5295 16.9151 12.5053C16.8989 12.4811 16.889 12.4533 16.8861 12.4244C16.8833 12.3954 16.8876 12.3662 16.8987 12.3393C17.0722 11.9217 17.4042 11.59 17.8219 11.417C18.2397 11.244 18.709 11.2438 19.1269 11.4165C19.1703 11.4344 19.2047 11.4689 19.2227 11.5122C19.2406 11.5556 19.2406 11.6043 19.2227 11.6477C19.2047 11.6911 19.1703 11.7255 19.1269 11.7435C19.0835 11.7615 19.0348 11.7615 18.9914 11.7435C18.6603 11.6067 18.2884 11.6069 17.9574 11.7441C17.6264 11.8812 17.3634 12.1441 17.226 12.475C17.2125 12.5073 17.1897 12.5348 17.1606 12.5542C17.1315 12.5736 17.0972 12.584 17.0622 12.584Z" fill="#CDAC6D"/>
<path d="M17.0958 19.4398C16.905 19.44 16.7146 19.4249 16.5262 19.3947C15.8445 19.2984 15.2179 18.9667 14.7551 18.457C14.7338 18.4323 14.7198 18.4021 14.7147 18.3699C14.7095 18.3377 14.7133 18.3047 14.7257 18.2745C14.7381 18.2443 14.7586 18.2181 14.7849 18.1989C14.8113 18.1796 14.8424 18.168 14.875 18.1654C15.4262 18.1301 15.9746 18.0591 16.5168 17.953C16.9846 17.8567 17.4423 17.7164 17.8837 17.5339C18.3235 17.3498 18.7453 17.1252 19.1437 16.8631C19.6023 16.5547 20.0412 16.2177 20.4575 15.8542C20.4824 15.8332 20.5125 15.8195 20.5447 15.8146C20.5768 15.8096 20.6097 15.8136 20.6397 15.8262C20.6698 15.8387 20.6957 15.8593 20.7148 15.8856C20.7339 15.9119 20.7454 15.943 20.748 15.9754C20.783 16.6634 20.575 17.3418 20.1604 17.8919C19.7503 18.4517 19.194 18.8877 18.5524 19.1522C18.0902 19.3419 17.5954 19.4396 17.0958 19.4398ZM15.2886 18.4844C15.6639 18.781 16.1102 18.9744 16.5833 19.0455C17.2038 19.1402 17.8384 19.0634 18.4184 18.8234C18.9983 18.5833 19.5016 18.1893 19.8737 17.6838C20.1593 17.2987 20.3384 16.8451 20.3929 16.3688C20.0567 16.6518 19.7046 16.9155 19.3384 17.1583C18.9217 17.4325 18.4805 17.6672 18.0203 17.8596C17.5586 18.0508 17.0798 18.1977 16.5904 18.2985C16.1605 18.3859 15.7258 18.448 15.2886 18.4844Z" fill="#CDAC6D"/>
<path d="M5.69786 16.4453C5.10931 16.4454 4.52413 16.3566 3.96215 16.1818C3.84157 16.1482 3.71085 16.1041 3.55583 16.0442C3.40882 15.9795 3.28093 15.9168 3.15753 15.8488C0.440933 14.4232 -0.737445 11.0098 0.477743 8.07963L3.41354 0.992375C3.42578 0.962753 3.44583 0.937009 3.47155 0.917893C3.49728 0.898776 3.52771 0.887004 3.5596 0.883834C3.59163 0.880359 3.624 0.88579 3.65314 0.899528C3.68228 0.913267 3.70707 0.93478 3.72477 0.9617C5.7946 4.05441 10.4496 5.98125 14.1015 5.25615C14.133 5.25019 14.1655 5.25276 14.1956 5.26359C14.2257 5.27442 14.2524 5.29312 14.2728 5.31774C14.2932 5.34246 14.3064 5.37227 14.3111 5.40396C14.3158 5.43564 14.3117 5.468 14.2993 5.49754L12.0949 10.8106C12.077 10.8539 12.0425 10.8883 11.9991 10.9062C11.9558 10.9241 11.9071 10.9241 11.8638 10.9061C11.8205 10.8881 11.7861 10.8536 11.7682 10.8103C11.7503 10.7669 11.7504 10.7183 11.7684 10.6749L13.8481 5.66082C10.2278 6.22311 5.77809 4.38122 3.61718 1.42583L0.804782 8.21508C-0.34127 10.9779 0.765849 14.194 3.32506 15.5371C3.44304 15.6015 3.56102 15.6598 3.69103 15.7172C3.82742 15.7695 3.94799 15.8104 4.06219 15.8422C5.14533 16.169 6.30145 16.1645 7.38203 15.8294C8.46261 15.4942 9.4183 14.8436 10.1263 13.9611C10.1562 13.9249 10.1993 13.902 10.246 13.8975C10.2928 13.893 10.3394 13.9073 10.3756 13.9372C10.4119 13.9671 10.4347 14.0101 10.4392 14.0569C10.4437 14.1036 10.4295 14.1503 10.3996 14.1865C9.83124 14.8867 9.11488 15.4525 8.30196 15.843C7.48904 16.2336 6.59971 16.4393 5.69786 16.4453Z" fill="#CDAC6D"/>
<path d="M10.1506 9.06586C10.1156 9.06586 10.0813 9.05549 10.0522 9.03604C10.0231 9.01659 10.0004 8.98895 9.98704 8.95661C9.91917 8.79265 9.81966 8.64366 9.6942 8.51816C9.56873 8.39266 9.41978 8.2931 9.25584 8.22518C9.09189 8.15725 8.91618 8.12229 8.73872 8.12228C8.56126 8.12227 8.38554 8.15722 8.22159 8.22514C8.19999 8.23491 8.17664 8.24025 8.15293 8.24082C8.12922 8.24139 8.10563 8.2372 8.08358 8.22848C8.06152 8.21976 8.04145 8.20669 8.02454 8.19006C8.00763 8.17343 7.99424 8.15357 7.98516 8.13166C7.97608 8.10975 7.9715 8.08624 7.97169 8.06252C7.97187 8.03881 7.97682 8.01537 7.98624 7.99361C7.99566 7.97184 8.00936 7.95219 8.02652 7.93583C8.04369 7.91946 8.06397 7.90671 8.08615 7.89834C8.50401 7.72529 8.97348 7.72529 9.39133 7.89835C9.80918 8.07141 10.1412 8.40335 10.3143 8.82117C10.3322 8.86457 10.3321 8.9133 10.3141 8.95666C10.2961 9.00001 10.2617 9.03445 10.2183 9.05241C10.1968 9.06134 10.1738 9.06592 10.1506 9.06586Z" fill="#CDAC6D"/>
<path d="M5.93783 7.32097C5.90281 7.32093 5.86858 7.31053 5.83944 7.29109C5.81031 7.27166 5.78757 7.24404 5.77408 7.21172C5.70623 7.04776 5.60674 6.89878 5.4813 6.77328C5.35586 6.64778 5.20693 6.54823 5.043 6.4803C4.87908 6.41237 4.70338 6.37741 4.52594 6.3774C4.3485 6.37739 4.1728 6.41234 4.00887 6.48025C3.98739 6.48914 3.96438 6.49372 3.94114 6.49372C3.91789 6.49371 3.89488 6.48913 3.87341 6.48024C3.85194 6.47134 3.83243 6.4583 3.81599 6.44187C3.79956 6.42543 3.78652 6.40592 3.77763 6.38445C3.76874 6.36297 3.76416 6.33996 3.76416 6.31672C3.76416 6.29347 3.76874 6.27046 3.77764 6.24899C3.78653 6.22751 3.79957 6.208 3.81601 6.19157C3.83244 6.17514 3.85195 6.1621 3.87343 6.15321C4.29125 5.98017 4.76069 5.98018 5.1785 6.15324C5.59631 6.32631 5.92827 6.65824 6.10135 7.07604C6.11249 7.10293 6.11682 7.13215 6.11397 7.16112C6.11111 7.19008 6.10116 7.21789 6.08499 7.24209C6.06882 7.26629 6.04693 7.28613 6.02126 7.29984C5.99559 7.31356 5.96694 7.32097 5.93783 7.32097Z" fill="#CDAC6D"/>
<path d="M5.90414 14.1765C5.40394 14.176 4.90867 14.0777 4.44615 13.8873C3.80488 13.623 3.24876 13.1872 2.8388 12.6277C2.42388 12.0776 2.21558 11.3992 2.25032 10.711C2.25286 10.6786 2.2643 10.6475 2.28337 10.6211C2.30245 10.5947 2.32843 10.5741 2.35845 10.5616C2.38847 10.549 2.42138 10.545 2.45354 10.5499C2.48571 10.5548 2.5159 10.5685 2.54079 10.5895C2.95716 10.9531 3.39605 11.2901 3.85484 11.5985C4.25356 11.8606 4.67568 12.0852 5.1158 12.2695C5.5569 12.4518 6.01426 12.592 6.48177 12.6881C7.02426 12.7946 7.57307 12.8659 8.12475 12.9017C8.15723 12.9044 8.18832 12.916 8.21461 12.9353C8.2409 12.9546 8.26137 12.9807 8.27376 13.0109C8.28615 13.041 8.28998 13.074 8.28484 13.1062C8.2797 13.1384 8.26578 13.1685 8.24462 13.1933C7.78215 13.7027 7.15614 14.0344 6.47493 14.131C6.28619 14.1614 6.09531 14.1766 5.90414 14.1765ZM2.60756 11.1058C2.66214 11.5822 2.84117 12.0358 3.12667 12.421C3.49905 12.9264 4.00253 13.3204 4.58266 13.5603C5.16278 13.8003 5.79747 13.877 6.41806 13.7823C6.89072 13.711 7.33659 13.5176 7.71159 13.2211C7.27421 13.1848 6.83937 13.1226 6.40933 13.035C5.92065 12.9344 5.44259 12.7877 4.98154 12.597C4.52122 12.4043 4.07975 12.1694 3.66277 11.8953C3.2963 11.6524 2.94399 11.3888 2.60756 11.1058Z" fill="#CDAC6D"/>
</svg>
