<svg width="19" height="24" viewBox="0 0 19 24" fill="none" xmlns="http://www.w3.org/2000/svg">
<path d="M0.0664903 7.01997C0.00950785 7.09058 -0.0124648 7.18315 0.00687114 7.27192L3.11629 21.594C3.14618 21.7318 3.2682 21.8303 3.40941 21.8303H12.4642C12.6054 21.8303 12.7274 21.7318 12.7573 21.594L13.5323 18.0245C14.1874 17.053 15.2154 16.4501 16.2117 15.8685C17.6506 15.0283 19.0098 14.2348 19.0098 12.4586C19.0098 11.0648 17.8759 9.93091 16.482 9.93091H15.2895L15.8667 7.27192C15.8861 7.18315 15.8641 7.09058 15.8071 7.01997C15.7503 6.94922 15.6643 6.9082 15.5736 6.9082H0.299986C0.209313 6.9082 0.123326 6.94922 0.0664903 7.01997ZM12.2223 21.2303H3.65126L1.31498 10.4694C4.44853 10.4942 6.09427 10.8988 7.68294 11.2919C9.30709 11.6936 10.9894 12.1072 14.1977 12.1318L12.2223 21.2303ZM16.482 10.5309C17.545 10.5309 18.4098 11.3958 18.4098 12.4586C18.4098 13.8902 17.251 14.5668 15.9092 15.3504C15.207 15.7604 14.4432 16.2118 13.795 16.8142L15.1592 10.5309H16.482ZM15.2015 7.5082L14.3278 11.5328C11.1069 11.5187 9.43816 11.1079 7.82709 10.7093C6.18133 10.3023 4.47686 9.8827 1.18448 9.8684L0.672057 7.5082H15.2015Z" fill="#CDAC6D"/>
<path d="M6.09453 2.43887C6.40566 2.15586 6.79268 1.80371 6.79268 1.1252C6.79268 0.959521 6.65835 0.825195 6.49268 0.825195C6.327 0.825195 6.19268 0.959521 6.19268 1.1252C6.19268 1.53843 5.97119 1.73999 5.69082 1.99502C5.37969 2.27803 4.99268 2.63018 4.99268 3.30869C4.99268 3.98721 5.37969 4.33936 5.69082 4.62236C5.97119 4.87739 6.19268 5.07895 6.19268 5.49219C6.19268 5.65786 6.327 5.79219 6.49268 5.79219C6.65835 5.79219 6.79268 5.65786 6.79268 5.49219C6.79268 4.81367 6.40566 4.46152 6.09453 4.17852C5.81416 3.92349 5.59268 3.72192 5.59268 3.30869C5.59268 2.89546 5.81416 2.6939 6.09453 2.43887Z" fill="#CDAC6D"/>
<path d="M9.10674 1.61367C9.41787 1.33066 9.80488 0.978516 9.80488 0.3C9.80488 0.134326 9.67056 0 9.50488 0C9.33921 0 9.20488 0.134326 9.20488 0.3C9.20488 0.713232 8.9834 0.914795 8.70303 1.16982C8.39189 1.45283 8.00488 1.80498 8.00488 2.4835C8.00488 3.16201 8.39189 3.51416 8.70303 3.79717C8.9834 4.0522 9.20488 4.25376 9.20488 4.66699C9.20488 4.83267 9.33921 4.96699 9.50488 4.96699C9.67056 4.96699 9.80488 4.83267 9.80488 4.66699C9.80488 3.98848 9.41787 3.63633 9.10674 3.35332C8.82637 3.09829 8.60488 2.89673 8.60488 2.4835C8.60488 2.07026 8.82637 1.8687 9.10674 1.61367Z" fill="#CDAC6D"/>
<path d="M15.6239 23.7004C15.6239 23.5347 15.4896 23.4004 15.3239 23.4004H0.549512C0.383838 23.4004 0.249512 23.5347 0.249512 23.7004C0.249512 23.8661 0.383838 24.0004 0.549512 24.0004H15.3239C15.4896 24.0004 15.6239 23.8661 15.6239 23.7004Z" fill="#CDAC6D"/>
</svg>
