<svg width="29" height="58" viewBox="0 0 29 58" fill="none" xmlns="http://www.w3.org/2000/svg">
<path d="M2.71881 0.459883C2.41091 0.14942 2.00491 -0.015307 1.58811 0.0011206C1.1713 0.0175482 0.776983 0.213819 0.489936 0.54773C0.335519 0.704085 0.212231 0.894147 0.127891 1.10586C0.043551 1.31758 0 1.54632 0 1.7776C0 2.00887 0.043551 2.23761 0.127891 2.44933C0.212231 2.66104 0.335519 2.85111 0.489936 3.00746L25.0872 29.0103L0.489936 55.0132C0.335519 55.1695 0.212231 55.3596 0.127891 55.5713C0.043551 55.783 0 56.0118 0 56.243C0 56.4743 0.043551 56.7031 0.127891 56.9148C0.212231 57.1265 0.335519 57.3166 0.489936 57.4729C0.783877 57.804 1.18444 57.9934 1.60437 58C2.00861 57.9874 2.39882 57.8336 2.71881 57.5608L28.5101 30.2402C28.6645 30.0838 28.7878 29.8938 28.8721 29.6821C28.9565 29.4703 29 29.2416 29 29.0103C29 28.7791 28.9565 28.5503 28.8721 28.3386C28.7878 28.1269 28.6645 27.9368 28.5101 27.7805L2.71881 0.459883Z" fill="white"/>
</svg>
