<svg width="29" height="58" viewBox="0 0 29 58" fill="none" xmlns="http://www.w3.org/2000/svg">
<path d="M26.2812 57.5401C26.5891 57.8506 26.9951 58.0153 27.4119 57.9989C27.8287 57.9825 28.223 57.7862 28.5101 57.4523C28.6645 57.2959 28.7878 57.1059 28.8721 56.8941C28.9564 56.6824 29 56.4537 29 56.2224C29 55.9911 28.9564 55.7624 28.8721 55.5507C28.7878 55.339 28.6645 55.1489 28.5101 54.9925L3.91285 28.9897L28.5101 2.98682C28.6645 2.83046 28.7878 2.6404 28.8721 2.42868C28.9565 2.21697 29 1.98822 29 1.75695C29 1.52568 28.9565 1.29694 28.8721 1.08522C28.7878 0.873506 28.6645 0.68344 28.5101 0.527086C28.2161 0.196052 27.8156 0.00660335 27.3956 2.36245e-06C26.9914 0.0125575 26.6012 0.16635 26.2812 0.43924L0.489934 27.7598C0.335517 27.9162 0.212226 28.1062 0.127886 28.3179C0.0435462 28.5297 -3.24733e-06 28.7584 -3.26755e-06 28.9897C-3.28777e-06 29.2209 0.0435462 29.4497 0.127886 29.6614C0.212226 29.8731 0.335517 30.0632 0.489934 30.2195L26.2812 57.5401Z" fill="white"/>
</svg>
