<svg width="79" height="46" viewBox="0 0 79 46" fill="none" xmlns="http://www.w3.org/2000/svg">
<path d="M2.24728 46C2.82244 46 3.39759 45.7794 3.8357 45.3405L25.894 23.2411L40.8503 38.2231C41.7288 39.1032 43.1487 39.1032 44.0272 38.2231L68.7456 13.4541L72.6975 17.4157C73.5715 18.2913 74.5466 18.0257 74.8679 16.8305L78.9232 1.66835C79.2445 0.473113 78.5278 -0.244929 77.3348 0.0769511L62.2009 4.13984C61.0079 4.46172 60.7473 5.44087 61.619 6.31647L65.571 10.2736L42.4388 33.4489L27.4824 18.4669C26.6039 17.5868 25.184 17.5868 24.3055 18.4669L0.658849 42.1577C-0.219616 43.0378 -0.219616 44.4604 0.658849 45.3405C1.09696 45.7817 1.67212 46 2.24728 46Z" fill="white"/>
</svg>
