<svg width="46" height="46" viewBox="0 0 46 46" fill="none" xmlns="http://www.w3.org/2000/svg">
<circle cx="23" cy="23" r="22.5" fill="#CDAC6D" stroke="white"/>
<path d="M20.4873 28.0066C19.1137 28.0066 18.0001 29.1244 18.0001 30.5033C18.0001 31.8822 19.1137 33 20.4873 33C21.861 33 22.9746 31.8822 22.9746 30.5033C22.9746 29.1244 21.861 28.0066 20.4873 28.0066Z" fill="white"/>
<path d="M20.4873 16.9812C21.1237 16.9807 21.7354 16.7342 22.1955 16.2928L21.7898 16.7001L26.253 21.1803L26.7562 20.6753C26.5253 20.9068 26.3421 21.1817 26.2171 21.4843C26.0922 21.7869 26.0278 22.1113 26.0278 22.4389C26.0278 22.7665 26.0922 23.0908 26.2171 23.3934C26.3421 23.696 26.5253 23.971 26.7562 24.2025L26.253 23.7178L21.7451 28.2346L22.7473 29.2407L27.2553 24.7197L26.7521 24.2147C27.0998 24.5644 27.5429 24.8027 28.0256 24.8994C28.5082 24.9962 29.0086 24.9471 29.4634 24.7583C29.9182 24.5694 30.3069 24.2494 30.5805 23.8387C30.854 23.428 31 22.9451 31 22.4511C31 21.9571 30.854 21.4742 30.5805 21.0635C30.3069 20.6528 29.9182 20.3328 29.4634 20.1439C29.0086 19.9551 28.5082 19.906 28.0256 20.0028C27.5429 20.0995 27.0998 20.3378 26.7521 20.6875L27.2553 20.1825L22.792 15.7023L22.2888 16.2073C22.6821 15.7908 22.9202 15.2509 22.9628 14.6786C23.0055 14.1064 22.8501 13.5369 22.523 13.0663C22.1959 12.5956 21.717 12.2527 21.1672 12.0954C20.6174 11.9382 20.0304 11.9761 19.5052 12.2029C18.9801 12.4296 18.549 12.8313 18.2847 13.3402C18.0204 13.849 17.939 14.4338 18.0544 14.9958C18.1699 15.5579 18.4749 16.0627 18.9182 16.4251C19.3614 16.7876 19.9156 16.9854 20.4873 16.9852L20.4873 16.9812Z" fill="white"/>
</svg>
