<svg width="57" height="57" viewBox="0 0 57 57" fill="none" xmlns="http://www.w3.org/2000/svg">
<circle cx="28.5" cy="28.5" r="28" stroke="#CDAC6D"/>
<path d="M38.2799 22.3186C34.8394 16.9998 27.815 15.4186 22.3675 18.7248C17.0634 22.0311 15.3431 29.2187 18.7836 34.5375L19.0704 34.9687L17.9235 39.2812L22.2242 38.1312L22.6542 38.4187C24.5178 39.425 26.5248 40 28.5318 40C30.6821 40 32.8324 39.425 34.696 38.275C40.0002 34.825 41.5771 27.7812 38.2799 22.3186ZM35.2695 33.3874C34.696 34.25 33.9793 34.825 32.9758 34.9687C32.4024 34.9687 31.6856 35.2562 28.8185 34.1062C26.3815 32.9562 24.3745 31.0874 22.9409 28.9312C22.0808 27.9249 21.6507 26.6311 21.5074 25.3374C21.5074 24.1874 21.9375 23.1811 22.6542 22.4624C22.9409 22.1749 23.2276 22.0311 23.5144 22.0311H24.2311C24.5178 22.0311 24.8046 22.0311 24.9479 22.6061C25.2346 23.3249 25.9514 25.0499 25.9514 25.1936C26.0947 25.3374 26.0947 25.6249 25.9514 25.7686C26.0947 26.0561 25.9514 26.3436 25.808 26.4874C25.6647 26.6311 25.5213 26.9187 25.378 27.0624C25.0913 27.2062 24.9479 27.4937 25.0913 27.7812C25.6647 28.6437 26.3815 29.5062 27.0982 30.2249C27.9584 30.9437 28.8185 31.5187 29.822 31.9499C30.1087 32.0937 30.3954 32.0937 30.5387 31.8062C30.6821 31.5187 31.3989 30.7999 31.6856 30.5124C31.9723 30.2249 32.1157 30.2249 32.4024 30.3687L34.696 31.5187C34.9828 31.6624 35.2695 31.8062 35.4128 31.9499C35.5562 32.3812 35.5562 32.9562 35.2695 33.3874Z" fill="white"/>
</svg>
