<svg width="57" height="57" viewBox="0 0 57 57" fill="none" xmlns="http://www.w3.org/2000/svg">
<circle cx="28.5" cy="28.5" r="28" stroke="#CDAC6D"/>
<path d="M28.4969 24.665C26.3853 24.665 24.662 26.3883 24.662 28.5C24.662 30.6117 26.3853 32.335 28.4969 32.335C30.6085 32.335 32.3318 30.6117 32.3318 28.5C32.3318 26.3883 30.6085 24.665 28.4969 24.665ZM39.9987 28.5C39.9987 26.9119 40.0131 25.3382 39.9239 23.753C39.8347 21.9118 39.4147 20.2777 38.0683 18.9313C36.7191 17.582 35.0879 17.1648 33.2467 17.0757C31.6586 16.9865 30.085 17.0009 28.4998 17.0009C26.9117 17.0009 25.3381 16.9865 23.7529 17.0757C21.9117 17.1648 20.2776 17.5849 18.9312 18.9313C17.582 20.2806 17.1648 21.9118 17.0757 23.753C16.9865 25.3411 17.0009 26.9148 17.0009 28.5C17.0009 30.0852 16.9865 31.6618 17.0757 33.247C17.1648 35.0882 17.5849 36.7223 18.9312 38.0687C20.2805 39.418 21.9117 39.8352 23.7529 39.9243C25.341 40.0135 26.9146 39.9991 28.4998 39.9991C30.0878 39.9991 31.6615 40.0135 33.2467 39.9243C35.0879 39.8352 36.7219 39.4151 38.0683 38.0687C39.4176 36.7194 39.8347 35.0882 39.9239 33.247C40.016 31.6618 39.9987 30.0881 39.9987 28.5ZM28.4969 34.4006C25.2316 34.4006 22.5964 31.7653 22.5964 28.5C22.5964 25.2347 25.2316 22.5994 28.4969 22.5994C31.7622 22.5994 34.3974 25.2347 34.3974 28.5C34.3974 31.7653 31.7622 34.4006 28.4969 34.4006ZM34.6391 23.7358C33.8767 23.7358 33.261 23.1201 33.261 22.3577C33.261 21.5953 33.8767 20.9797 34.6391 20.9797C35.4014 20.9797 36.0171 21.5953 36.0171 22.3577C36.0173 22.5388 35.9818 22.7181 35.9127 22.8854C35.8435 23.0526 35.742 23.2047 35.614 23.3327C35.486 23.4607 35.334 23.5622 35.1667 23.6313C34.9994 23.7005 34.8201 23.736 34.6391 23.7358Z" fill="white"/>
</svg>
