<svg width="57" height="57" viewBox="0 0 57 57" fill="none" xmlns="http://www.w3.org/2000/svg">
<circle cx="28.5" cy="28.5" r="28" stroke="#CDAC6D"/>
<path fill-rule="evenodd" clip-rule="evenodd" d="M40 40H35.4V31.9511C35.4 29.7431 34.426 28.5112 32.6791 28.5112C30.7782 28.5112 29.65 29.7949 29.65 31.9511V40H25.05V25.05H29.65V26.7312C29.65 26.7312 31.0932 24.1987 34.3454 24.1987C37.5988 24.1987 40 26.184 40 30.2918V40ZM19.8083 22.659C18.257 22.659 17 21.3918 17 19.829C17 18.2673 18.257 17 19.8083 17C21.3585 17 22.6154 18.2673 22.6154 19.829C22.6166 21.3918 21.3585 22.659 19.8083 22.659ZM17 40H22.75V25.05H17V40Z" fill="white"/>
</svg>
