<svg width="95" height="95" viewBox="0 0 95 95" fill="none" xmlns="http://www.w3.org/2000/svg">
<circle cx="47.5" cy="47.5" r="47" stroke="#CDAC6D"/>
<path d="M45.1274 48.2333C44.0672 47.9399 42.9586 47.8201 41.8284 47.8837C39.2452 48.0328 38.3572 47.715 37.4208 47.3777C37.3805 47.3581 37.332 47.3459 37.2836 47.3288L37.5258 46.8398C38.0074 45.8571 37.5258 44.7057 36.4441 44.2608L34.9291 43.6423C33.8474 43.2047 32.58 43.6423 32.0903 44.625L26.3669 56.222C25.8853 57.2047 26.3669 58.3562 27.4486 58.8011L28.9635 59.4196C29.2461 59.5393 29.5421 59.5882 29.838 59.5882C30.6238 59.5882 31.3745 59.1947 31.7458 58.5248C32.3647 59.1384 33.3845 59.9818 34.5497 60.3583C34.4958 60.5392 34.4609 60.7274 34.4609 60.9279C34.4689 61.4657 34.7084 61.9742 35.1363 62.3482L35.3219 62.5169C35.7417 62.886 36.2933 63.0865 36.8718 63.0865H36.9068H36.9149C36.9364 63.6438 37.184 64.1621 37.6252 64.5507C38.0665 64.9394 38.6505 65.157 39.272 65.157H39.307C39.3151 65.7339 39.568 66.2644 40.0228 66.6653C40.4641 67.054 41.0426 67.2667 41.6561 67.2716C41.6642 67.7899 41.8902 68.3106 42.3315 68.6992L42.5172 68.8679C42.9504 69.2492 43.5101 69.4375 44.0671 69.4375C44.6241 69.4375 45.2322 69.2321 45.6708 68.8239L46.7256 67.8363L48.4747 69.5891C48.9429 70.0511 49.5833 70.2907 50.2237 70.2907C50.7888 70.2907 51.3592 70.1098 51.8086 69.7333C52.2768 69.3446 52.5513 68.8191 52.5809 68.2494V68.2372C52.6213 68.2372 52.6643 68.2494 52.7047 68.2494C53.2698 68.2494 53.8402 68.0685 54.2896 67.6921C54.7578 67.3034 55.0323 66.7778 55.0619 66.2082V66.196C55.1022 66.196 55.1453 66.2082 55.1857 66.2082C55.7507 66.2082 56.3212 66.0273 56.7706 65.6508C57.2603 65.2499 57.5132 64.7048 57.5428 64.1548C57.5832 64.1548 57.6263 64.167 57.6666 64.167C58.2317 64.167 58.8021 63.9861 59.2515 63.6096C59.9538 63.0327 60.1664 62.1575 59.8866 61.3557C60.8984 61.0305 62.642 60.4292 63.8825 59.7716V59.8401C63.9659 60.3583 64.2619 60.8155 64.7085 61.1357C65.0879 61.3997 65.5427 61.5855 66.0109 61.5415C66.4253 61.4975 67.9456 61.3288 67.9456 61.3288C69.1161 61.1919 69.9503 60.2092 69.7996 59.1458L67.9886 46.5487C67.9133 46.0305 67.6227 45.5733 67.1679 45.2531C66.7132 44.9329 66.1481 44.796 65.583 44.8644L63.9309 45.0575C63.3604 45.126 62.8572 45.39 62.5048 45.8031C62.1523 46.2163 62.0016 46.7296 62.0769 47.243L62.1792 47.9568C61.2213 48.2893 59.2166 48.7709 58.0191 48.9517C56.1113 49.2402 55.0996 48.6755 53.7004 47.9006C53.4098 47.7368 53.1084 47.5754 52.7909 47.4067C50.0973 46.0182 47.646 46.1869 45.4959 47.9201C45.3775 48.013 45.2537 48.1206 45.1165 48.2404L45.1274 48.2333ZM29.5262 58.2707L28.0113 57.6522C27.6265 57.4958 27.4543 57.0826 27.6265 56.733L33.3499 45.136C33.4333 44.9674 33.584 44.8354 33.7778 44.7669C33.9715 44.6985 34.176 44.7034 34.3644 44.7791L35.8793 45.3976C36.2641 45.5541 36.4363 45.9672 36.2641 46.3168L30.5407 57.9138C30.3685 58.2634 29.9137 58.4198 29.5289 58.2634L29.5262 58.2707ZM36.8908 61.8325C36.6701 61.852 36.4495 61.7567 36.2853 61.6125L36.0997 61.4438C35.9355 61.2996 35.844 61.1064 35.8386 60.8987C35.8386 60.6933 35.9221 60.4978 36.0808 60.3486L39.4767 57.1707C39.6408 57.0142 39.8614 56.9335 40.0902 56.9335C40.3162 56.9335 40.518 57.0093 40.6821 57.1536L40.8678 57.3222C41.2042 57.6229 41.2122 58.1118 40.8893 58.4174L37.4935 61.6027C37.3347 61.7518 37.1222 61.8349 36.8935 61.8398L36.8908 61.8325ZM38.5914 63.6464C38.1985 63.3017 38.1932 62.7394 38.5699 62.3825L41.8769 59.2852L42.773 58.4468C42.9586 58.2781 43.2008 58.1779 43.4618 58.1779H43.4753C43.7309 58.1779 43.9785 58.2659 44.1561 58.4272C44.5489 58.7719 44.5543 59.3341 44.1776 59.691L39.9745 63.6269C39.5951 63.9764 38.9762 63.9887 38.5834 63.6464L38.5914 63.6464ZM40.6983 65.1302C40.6983 64.8931 40.7952 64.6682 40.9728 64.4922L45.1759 60.5564C45.3616 60.3877 45.6037 60.2875 45.8648 60.2875H45.8782C46.1338 60.2875 46.3814 60.3755 46.559 60.5368C46.7447 60.7055 46.855 60.9255 46.855 61.1626C46.855 61.3998 46.7581 61.6247 46.5805 61.8007L42.3774 65.7365C42.1917 65.9052 41.9496 66.0054 41.6886 66.0054C41.4464 65.9981 41.18 65.9174 40.9863 65.756C40.8006 65.5874 40.6903 65.3674 40.6903 65.1302H40.6983ZM44.7023 67.9391C44.3713 68.2447 43.8332 68.252 43.4968 67.9586L43.3111 67.79C42.9748 67.4893 42.9667 67.0004 43.2896 66.6948L46.6854 63.5168C46.8442 63.3677 47.0568 63.2846 47.2855 63.2797C47.5196 63.2675 47.7268 63.3555 47.8909 63.4997L48.0847 63.6684C48.2488 63.8126 48.3403 64.0057 48.3457 64.2135C48.3457 64.4189 48.2623 64.6144 48.1035 64.7636L44.7077 67.9415L44.7023 67.9391ZM51.2249 68.1762C51.2114 68.4133 51.1011 68.6333 50.902 68.7947C50.5037 69.1272 49.8768 69.0954 49.5109 68.7311L47.6999 66.9173L49.0561 65.6461L50.9639 67.5309C51.1442 67.7069 51.233 67.9367 51.2195 68.1762L51.2249 68.1762ZM58.3421 62.671C57.9439 63.0034 57.3169 62.9765 56.951 62.6074L54.2036 59.8915C53.948 59.6348 53.5067 59.6226 53.2322 59.8548C52.9497 60.0871 52.9362 60.488 53.1918 60.7373L55.9392 63.4459C56.3052 63.8077 56.2756 64.3773 55.8692 64.7098C55.471 65.0422 54.844 65.0153 54.4781 64.6462L51.7308 61.9303C51.4751 61.6736 51.0338 61.6614 50.7593 61.8936C50.4768 62.1259 50.4633 62.5268 50.719 62.7762L53.4663 65.4848C53.6466 65.6608 53.7354 65.8906 53.7219 66.1301C53.7085 66.3672 53.5982 66.5872 53.399 66.7486C53.0008 67.081 52.3738 67.0541 52.0079 66.685L49.7207 64.4262C49.7207 64.4262 49.7126 64.4262 49.7073 64.4189C49.7153 64.3382 49.7288 64.2624 49.7288 64.1817C49.7207 63.6439 49.4812 63.1354 49.0534 62.7614L48.8596 62.5928C48.6121 62.3728 48.3161 62.2236 47.9986 62.1307C48.1627 61.8252 48.2596 61.4927 48.2542 61.1431C48.2461 60.5662 47.9932 60.0358 47.5384 59.6348C47.0837 59.2339 46.5051 59.009 45.8567 59.0285C45.8486 58.4785 45.6091 57.926 45.1409 57.5202C44.6861 57.1193 44.0942 56.9066 43.4591 56.9139C43.0743 56.9139 42.7084 57.0142 42.3774 57.178C42.2671 56.8968 42.0949 56.6328 41.8392 56.4152L41.6536 56.2465C40.771 55.4716 39.361 55.4887 38.4999 56.2905L35.3517 59.2387C34.1946 59.0382 32.9407 57.8746 32.389 57.261L36.7294 48.4677C36.7913 48.4921 36.8612 48.5117 36.9231 48.5361C37.9644 48.9126 39.0381 49.2988 41.9307 49.1301C42.633 49.0861 43.3219 49.1301 43.9973 49.2548C42.6411 50.5138 41.1235 52.0221 41.0427 52.0955C40.1117 52.9706 40.2705 54.4911 41.4006 55.4886C42.5307 56.4835 44.2098 56.5837 45.1409 55.7086L49.1421 51.9537C53.0196 54.8138 55.1292 57.4051 57.0019 59.7082C57.4702 60.2851 57.9168 60.8351 58.3662 61.3534C58.3662 61.3534 58.3743 61.3656 58.3797 61.3656C58.6972 61.7347 58.786 62.297 58.3447 62.6612L58.3421 62.671ZM63.6027 46.5562C63.7265 46.4071 63.9067 46.3117 64.1112 46.2873C64.5525 46.2384 65.5643 46.1186 65.8603 46.0868C66.0245 46.0673 66.1913 46.1357 66.3285 46.2311C66.4927 46.3435 66.5976 46.5073 66.6245 46.6931L68.4354 59.2901C68.4893 59.6715 68.1933 60.0235 67.7735 60.0724L66.1213 60.2655C65.9142 60.29 65.715 60.2411 65.5563 60.1286C65.3921 60.0162 65.2872 59.8524 65.2603 59.6666L63.4494 47.0696C63.4224 46.8813 63.4763 46.7004 63.6 46.5562H63.6027ZM52.1209 48.4825C52.425 48.639 52.7129 48.8028 52.99 48.9519C54.4565 49.7659 55.8342 50.536 58.2533 50.1717C59.4453 49.9908 61.2509 49.5655 62.3729 49.2135L63.6968 58.3879C62.6716 59.07 60.4033 59.8596 59.1709 60.2459C58.8265 59.8327 58.474 59.4147 58.1107 58.9624C56.2083 56.6278 53.8457 53.7237 49.5138 50.6216C49.2393 50.4211 48.8384 50.4456 48.5909 50.6778L44.1483 54.8385C43.7501 55.2149 42.9294 55.0952 42.3508 54.5891C41.7723 54.0831 41.6216 53.3375 42.0333 52.9561C42.0602 52.9243 45.1681 49.8515 46.422 48.8394C48.1038 47.4802 49.9632 47.3678 52.1185 48.4776L52.1209 48.4825Z" fill="#C0C0C0"/>
<path d="M78.9779 40.3867C78.8675 39.4675 78.3428 38.6217 77.5302 38.0644L48.4151 18.1265C48.1676 17.9578 47.8285 17.9578 47.5891 18.1265L18.4692 38.0644C17.6566 38.6218 17.1319 39.4651 17.0215 40.3867C16.9112 41.3059 17.2287 42.2324 17.896 42.934C18.6199 43.6967 19.6531 44.0976 20.6998 44.0976C21.4775 44.0976 22.2578 43.8776 22.9171 43.4229L24.2733 42.4964V73.3742C24.2733 73.7189 24.5828 74 24.9622 74H71.045C71.4245 74 71.7339 73.7189 71.7339 73.3742V42.4964L73.0901 43.4229C74.64 44.4814 76.8438 44.2688 78.1058 42.934C78.7677 42.2324 79.0853 41.3059 78.9803 40.3868L78.9779 40.3867ZM70.3534 72.7408H25.6483V41.5426L48.0009 26.2345L70.3534 41.5426V72.7408ZM77.0644 42.1127C76.2733 42.9512 74.8875 43.0832 73.9242 42.4183L48.4229 24.9593C48.2991 24.8786 48.1538 24.8346 48.0085 24.8346C47.8632 24.8346 47.7179 24.8786 47.5941 24.9593L22.0852 42.4208C21.1138 43.0833 19.7361 42.9537 18.945 42.1152C18.5252 41.6703 18.3315 41.1007 18.4014 40.5189C18.4714 39.9371 18.7943 39.4164 19.3109 39.0668L48.0003 19.4074L76.7061 39.0568C77.2228 39.4064 77.5457 39.9271 77.6156 40.5089C77.6856 41.0907 77.4918 41.6603 77.0721 42.1052L77.0644 42.1127Z" fill="#C0C0C0"/>
</svg>
