<svg width="95" height="95" viewBox="0 0 95 95" fill="none" xmlns="http://www.w3.org/2000/svg">
<path d="M39.9755 64.2338H55.0278C56.298 64.2338 57.5162 63.7292 58.4144 62.8311C59.3125 61.9329 59.8171 60.7147 59.8171 59.4445V50.8551C60.309 51.0652 60.8562 51.1085 61.375 50.9786C61.8938 50.8486 62.3559 50.5525 62.6907 50.1354L63.7362 48.8299C64.1235 48.3423 64.3126 47.7266 64.266 47.1057C64.2193 46.4848 63.9402 45.9043 63.4844 45.4801L50.3753 33.3754C49.589 32.6571 48.5625 32.2588 47.4976 32.2588C46.4326 32.2588 45.4061 32.6571 44.6198 33.3754L31.5107 45.4801C31.0549 45.9043 30.7758 46.4848 30.7291 47.1057C30.6825 47.7266 30.8716 48.3423 31.2589 48.8299L32.3044 50.1354C32.6397 50.5517 33.1015 50.8477 33.6199 50.9785C34.1383 51.1094 34.6852 51.068 35.178 50.8606V59.4445C35.178 60.0741 35.3021 60.6976 35.5433 61.2792C35.7845 61.8608 36.138 62.3891 36.5836 62.834C37.0292 63.2788 37.5582 63.6314 38.1402 63.8716C38.7222 64.1118 39.3459 64.2349 39.9755 64.2338ZM51.6068 62.8654H43.3965V54.6551C43.3965 54.2922 43.5407 53.9442 43.7973 53.6875C44.0539 53.4309 44.402 53.2867 44.7649 53.2867H50.2384C50.6013 53.2867 50.9494 53.4309 51.206 53.6875C51.4626 53.9442 51.6068 54.2922 51.6068 54.6551V62.8654ZM58.4487 59.4445C58.4487 60.3518 58.0883 61.2219 57.4468 61.8635C56.8052 62.505 55.9351 62.8654 55.0278 62.8654H52.9752V54.6551C52.9752 53.9293 52.6869 53.2332 52.1736 52.7199C51.6604 52.2067 50.9643 51.9184 50.2384 51.9184H44.7649C44.039 51.9184 43.3429 52.2067 42.8297 52.7199C42.3165 53.2332 42.0281 53.9293 42.0281 54.6551V62.8654H39.9755C39.0682 62.8654 38.1981 62.505 37.5565 61.8635C36.915 61.2219 36.5546 60.3518 36.5546 59.4445V49.8042L47.3648 39.8259C47.4023 39.792 47.4511 39.7732 47.5017 39.7732C47.5522 39.7732 47.601 39.792 47.6385 39.8259L58.4487 49.8042V59.4445ZM34.9741 49.4019C34.8629 49.5026 34.7324 49.5796 34.5905 49.6282C34.4486 49.6768 34.2983 49.696 34.1488 49.6846C33.9992 49.6732 33.8535 49.6315 33.7206 49.5619C33.5878 49.4924 33.4704 49.3965 33.3758 49.2801L32.3317 47.9747C32.1592 47.7577 32.0754 47.4834 32.0973 47.2071C32.1191 46.9308 32.245 46.673 32.4494 46.4859L45.5572 34.3798C46.0903 33.8937 46.7857 33.6242 47.5071 33.6242C48.2286 33.6242 48.924 33.8937 49.4571 34.3798L62.5539 46.4859C62.7575 46.6738 62.8824 46.9319 62.9032 47.2082C62.924 47.4845 62.8393 47.7584 62.6661 47.9747L61.6207 49.2801C61.5261 49.3963 61.4088 49.492 61.276 49.5614C61.1433 49.6308 60.9977 49.6725 60.8484 49.6839C60.699 49.6953 60.5488 49.6762 60.4071 49.6277C60.2653 49.5792 60.1349 49.5024 60.0238 49.4019L48.569 38.8174C48.2776 38.5506 47.8968 38.4026 47.5017 38.4026C47.1065 38.4026 46.7257 38.5506 46.4343 38.8174L34.9741 49.4019Z" fill="#C0C0C0"/>
<path d="M15.1833 53.2656C15.3621 53.7301 15.6786 54.1288 16.0906 54.4081C16.5025 54.6875 16.99 54.8341 17.4877 54.8283H18.4456C21.3452 69.7286 33.6894 80.4841 48.0027 80.4841C61.9247 80.4841 73.9774 70.4046 77.3094 55.99C77.3908 55.6255 77.3895 55.2473 77.3055 54.8834C77.2215 54.5194 77.0571 54.1789 76.8242 53.8868C76.5914 53.5948 76.296 53.3586 75.9599 53.1957C75.6238 53.0328 75.2554 52.9472 74.8819 52.9454H71.7223C71.1747 52.9443 70.6422 53.1251 70.2086 53.4595C69.7749 53.7939 69.4645 54.2628 69.3263 54.7927C66.6524 65.1924 57.8852 72.4449 48.0054 72.4449C38.1969 72.4449 29.3584 65.0857 26.6928 54.8283C27.1892 54.828 27.6742 54.6788 28.0849 54.4C28.4956 54.1212 28.8132 53.7256 28.9967 53.2643C29.1802 52.803 29.221 52.2973 29.114 51.8126C29.007 51.3279 28.7571 50.8864 28.3965 50.5452L23.8014 46.2033C23.3411 45.7636 22.7295 45.5174 22.0929 45.5156C21.4563 45.5139 20.8433 45.7566 20.3805 46.1937L15.7827 50.5452C15.4175 50.8835 15.1643 51.3254 15.0572 51.8116C14.9501 52.2978 14.9941 52.8051 15.1833 53.2656ZM16.7241 51.5387L21.3329 47.179C21.5412 46.9907 21.8124 46.8871 22.0932 46.8886C22.374 46.8901 22.6441 46.9966 22.8504 47.1872L27.4509 51.5387C27.6102 51.6922 27.7201 51.8897 27.7667 52.106C27.8133 52.3222 27.7945 52.5475 27.7126 52.753C27.6306 52.9585 27.4894 53.1349 27.3068 53.2599C27.1242 53.3848 26.9086 53.4525 26.6874 53.4544H25.8184C25.7159 53.4544 25.6147 53.4774 25.5223 53.5218C25.4299 53.5662 25.3486 53.6307 25.2845 53.7108C25.2204 53.7908 25.1751 53.8841 25.1519 53.984C25.1287 54.0839 25.1283 54.1877 25.1507 54.2877C27.6822 65.5988 37.2923 73.8078 48.0027 73.8078C58.5064 73.8078 67.8183 66.127 70.6495 55.1307C70.7117 54.8946 70.8505 54.6858 71.0442 54.5372C71.2379 54.3886 71.4754 54.3086 71.7196 54.3096H74.9093C75.0732 54.3154 75.2339 54.3568 75.3803 54.4308C75.5267 54.5048 75.6553 54.6097 75.7572 54.7382C75.8591 54.8668 75.9318 55.0159 75.9704 55.1754C76.009 55.3348 76.0125 55.5007 75.9807 55.6616C72.7855 69.4727 61.2802 79.1157 48 79.1157C34.1793 79.1157 22.2661 68.5627 19.6867 54.025C19.6587 53.8667 19.5759 53.7234 19.4528 53.62C19.3297 53.5167 19.1742 53.46 19.0134 53.4599H17.4877C17.2662 53.4586 17.0501 53.3913 16.867 53.2665C16.684 53.1417 16.5424 52.9651 16.4604 52.7593C16.3784 52.5535 16.3597 52.3279 16.4066 52.1114C16.4536 51.8949 16.5642 51.6974 16.7241 51.5441V51.5387Z" fill="#C0C0C0"/>
<path d="M66.0134 43.7262C65.8233 44.1866 65.7789 44.6941 65.8861 45.1805C65.9932 45.6668 66.2468 46.1087 66.6127 46.4466L71.2023 50.7885C71.6628 51.2279 72.2743 51.4739 72.9109 51.4756C73.5474 51.4774 74.1603 51.2349 74.6233 50.7981L79.2238 46.4466C79.5847 46.1055 79.8349 45.664 79.9419 45.1791C80.049 44.6943 80.0081 44.1884 79.8244 43.7271C79.6407 43.2658 79.3227 42.8703 78.9116 42.5917C78.5005 42.3132 78.0153 42.1645 77.5188 42.1649H77.1698C74.459 26.9704 62.0724 16 47.5169 16C33.5594 16 21.1878 26.5366 18.0884 41.0415C18.0156 41.4033 18.0234 41.7767 18.1112 42.1353C18.199 42.4938 18.3646 42.8285 18.5963 43.1159C18.828 43.4032 19.1201 43.636 19.4518 43.7978C19.7836 43.9595 20.1469 44.0463 20.5159 44.0519H23.6728C24.229 44.0542 24.7697 43.8682 25.2068 43.524C25.6438 43.1799 25.9515 42.698 26.0798 42.1567C28.6167 31.4833 37.4374 24.0393 47.5169 24.0393C57.5554 24.0393 66.4499 31.616 68.9568 42.1704H68.3164C67.8197 42.1641 67.3329 42.3098 66.9213 42.5878C66.5097 42.8659 66.1929 43.2631 66.0134 43.7262ZM47.5169 22.6709C36.7956 22.6709 27.4331 30.5542 24.7483 41.8406C24.6912 42.0823 24.5537 42.2973 24.3582 42.4505C24.1628 42.6037 23.9211 42.6858 23.6728 42.6835H20.4981C20.335 42.6791 20.1747 42.6392 20.0285 42.5667C19.8823 42.4943 19.7536 42.3908 19.6513 42.2637C19.549 42.1365 19.4756 41.9887 19.4361 41.8303C19.3966 41.672 19.392 41.5069 19.4226 41.3466C22.3906 27.4534 34.2066 17.3684 47.5169 17.3684C61.5798 17.3684 73.5231 28.1335 75.9136 42.9572C75.9393 43.1177 76.0213 43.2638 76.1449 43.3694C76.2685 43.475 76.4257 43.5331 76.5883 43.5333H77.516C77.7379 43.5338 77.9545 43.6008 78.1379 43.7255C78.3214 43.8502 78.4633 44.027 78.5455 44.233C78.6276 44.4391 78.6462 44.665 78.5988 44.8818C78.5514 45.0985 78.4402 45.296 78.2796 45.449L73.6709 49.8087C73.4627 49.9973 73.1914 50.1011 72.9105 50.0996C72.6296 50.098 72.3594 49.9913 72.1533 49.8005L67.5528 45.449C67.3929 45.2958 67.2823 45.0982 67.2353 44.8817C67.1883 44.6653 67.207 44.4397 67.2891 44.2339C67.3711 44.0281 67.5127 43.8515 67.6957 43.7267C67.8787 43.6018 68.0948 43.5345 68.3164 43.5333H69.8065C69.908 43.5333 70.0082 43.5108 70.0999 43.4673C70.1916 43.4238 70.2724 43.3605 70.3366 43.2819C70.4008 43.2033 70.4467 43.1114 70.471 43.0129C70.4953 42.9144 70.4973 42.8117 70.477 42.7123C68.1179 31.1029 58.4612 22.6709 47.5169 22.6709Z" fill="#C0C0C0"/>
<circle cx="47.5" cy="47.5" r="47" stroke="#CDAC6D"/>
</svg>
