<svg width="95" height="95" viewBox="0 0 95 95" fill="none" xmlns="http://www.w3.org/2000/svg">
<circle cx="47.5" cy="47.5" r="47" stroke="#CDAC6D"/>
<path fill-rule="evenodd" clip-rule="evenodd" d="M70.0656 36.8932L68.2603 37.3604C67.9229 37.4465 67.5779 37.2473 67.4999 36.8957L67.3186 36.163C66.12 36.6695 64.9367 37.1809 63.7507 37.6382C65.8959 41.0068 66.9081 44.9876 66.5934 48.9581L67.7466 47.4828C67.9531 47.2197 68.3384 47.1681 68.6077 47.3697C68.8772 47.5713 68.93 47.9475 68.7236 48.2106L66.1478 51.5102C65.8582 51.8815 65.2665 51.793 65.0902 51.375L63.4511 47.5467C63.3201 47.2394 63.4687 46.8878 63.7834 46.7624C64.0982 46.6345 64.4582 46.7796 64.5866 47.0869L65.3647 48.9039C65.6769 45.0904 64.6823 41.2745 62.5773 38.0681C61.0792 38.5869 59.5886 38.973 58.0854 39.091C62.4691 44.365 62.0813 52.0411 57.1386 56.8701C55.1847 58.7781 52.6416 60.1083 49.7961 60.5779C51.5184 60.9664 52.9838 60.7918 54.7539 60.5828C56.534 60.3714 58.2664 60.1673 59.276 60.7107C60.389 59.7641 61.3936 58.6699 62.2346 57.4799C62.4284 57.207 62.8112 57.1381 63.0906 57.3274C63.3701 57.5168 63.4406 57.8905 63.2467 58.1609C62.3327 59.4543 61.2677 60.6148 60.0566 61.6376C60.2656 62.2695 60.1648 62.926 59.8425 63.5087C62.5015 62.4416 63.423 61.8589 65.7068 60.187C67.6984 58.729 69.3175 57.5438 70.4379 58.5962C70.5411 58.6946 70.6318 58.7978 70.7048 58.9085C71.2436 59.71 71.0623 60.8288 70.4782 61.9917C69.9595 63.0293 69.111 64.1333 68.2071 65.0504C67.5952 65.6725 66.9531 66.2134 66.3664 66.592C63.7781 68.7606 60.4091 70.4965 57.1083 71.6767C53.3491 73.0216 49.653 73.6584 47.2706 73.4052C46.543 73.415 44.1711 72.9872 41.5902 72.5201C38.5562 71.9718 35.2275 71.3719 34.1827 71.3891C33.4726 71.4013 31.7176 71.8267 30.9447 72.0456L31.2267 73.184C31.3047 73.5011 31.1083 73.8232 30.786 73.9044L29.0537 74.3519L29.1972 74.9149C29.2778 75.237 29.0764 75.5615 28.7465 75.6402L23.2197 76.9827C22.8899 77.0614 22.5576 76.8647 22.477 76.5426L18.0177 58.9623C17.9372 58.6402 18.1386 58.3157 18.4684 58.237L23.9952 56.8945C24.3251 56.8159 24.6574 57.0126 24.7405 57.3347L24.9369 58.1092L26.7423 57.642C27.0797 57.556 27.4246 57.7551 27.5027 58.1067L27.684 58.8395C28.8775 58.3354 30.0558 57.824 31.2367 57.3716C29.3307 54.3646 28.321 50.8607 28.3613 47.3132L27.3819 48.8056C27.198 49.0859 26.8178 49.1671 26.5308 48.9876C26.2438 48.8081 26.1607 48.4368 26.3445 48.1565L28.6282 44.6823C28.8901 44.2693 29.4919 44.2963 29.7135 44.7315L31.6548 48.4024C31.8109 48.6974 31.6925 49.0589 31.3904 49.2113C31.0882 49.3638 30.7181 49.2482 30.562 48.9532L29.5951 47.1264C29.5145 50.5956 30.5066 54.0231 32.4126 56.9444C33.941 56.4157 35.4568 56.0248 36.9902 55.9117C32.5512 50.6401 32.9162 42.9169 37.8815 38.0683C39.7926 36.2022 42.2677 34.8892 45.0377 34.395C43.391 34.0532 41.9432 34.2253 40.2461 34.427C38.4861 34.636 36.774 34.8376 35.7592 34.3188C34.3517 35.5112 33.1507 36.898 32.1788 38.4692C32.0025 38.7544 31.6248 38.8454 31.3328 38.6732C31.0407 38.5011 30.9475 38.1323 31.1238 37.8471C32.1536 36.1801 33.4579 34.6728 34.9535 33.4066C34.7294 32.7698 34.8276 32.0912 35.1549 31.5011C32.4733 32.583 31.6022 33.1337 29.2907 34.8228C27.2991 36.2809 25.68 37.466 24.5596 36.4136C24.4563 36.3153 24.3657 36.212 24.2927 36.1014C23.7538 35.2998 23.9351 34.1811 24.5193 33.0181C25.038 31.9805 25.8865 30.8766 26.7904 29.9594C27.4023 29.3374 28.0443 28.7964 28.631 28.4178C31.2194 26.2492 34.5884 24.5133 37.8892 23.3331C41.6459 21.9808 45.3445 21.3465 47.7268 21.5972C48.4545 21.5874 50.8264 22.0152 53.4073 22.4824C56.4388 23.0307 59.77 23.6306 60.8148 23.6159C61.5249 23.6036 63.2798 23.1782 64.0528 22.9594L63.7708 21.821C63.6928 21.5038 63.8892 21.1817 64.2114 21.1006L65.9438 20.6531L65.8028 20.0876C65.7222 19.7655 65.9236 19.4409 66.2535 19.3598L71.7803 18.0173C72.1101 17.9386 72.4425 18.1353 72.523 18.4574L76.9823 36.0402C77.0628 36.3623 76.8614 36.6868 76.5316 36.7655L71.0048 38.108C70.6749 38.1867 70.3426 37.99 70.262 37.6679L70.0656 36.8932ZM46.9006 65.0065C47.2959 65.0459 48.5145 65.3753 49.1365 65.545C50.3829 65.8843 51.7123 66.2482 52.3619 66.1941C53.5781 65.9949 55.8467 65.2721 57.4179 64.232C58.3621 63.6074 59.0269 62.8895 58.9261 62.174C58.8027 61.3135 56.8891 61.5397 54.9 61.7757C54.0917 61.8716 53.2709 61.9675 52.4803 61.9945L52.4652 61.997C48.716 62.2207 45.8002 60.3251 44.2719 59.3317C43.9848 59.1448 43.7507 58.9924 43.592 58.9088C43.5643 58.8965 43.5366 58.8817 43.5114 58.8645C38.5059 55.5575 33.8298 57.5417 28.8117 59.671C28.5221 59.7939 28.2301 59.9193 27.9757 60.025L30.6573 70.8753C31.5612 70.6221 33.3313 70.2016 34.1648 70.1868C36.2093 70.1549 46.1779 72.2645 47.2505 72.203C47.2883 72.2005 47.3285 72.2005 47.3663 72.2054C49.572 72.4489 53.0795 71.8391 56.6876 70.5458C59.8703 69.4049 63.1083 67.7404 65.5758 65.6726C65.6035 65.6455 65.6337 65.6209 65.669 65.6012C67.0639 64.7087 68.6527 62.9015 69.3728 61.4632C69.7807 60.6493 69.9897 59.838 69.5869 59.4593C69.2192 59.1151 67.9754 60.0248 66.447 61.1436C64.1532 62.8229 63.146 63.4695 60.4645 64.5588C59.0822 65.1194 57.8031 65.5545 57.4908 65.6259C57.4732 65.6308 57.4556 65.6332 57.438 65.6357C55.7787 66.5651 53.7089 67.1995 52.5457 67.3863C52.5255 67.3888 52.5054 67.3912 52.4878 67.3937C51.614 67.4724 50.1688 67.0765 48.8142 66.7077C48.0462 66.4987 47.311 66.2971 46.7898 66.2086C46.4725 66.1963 46.1804 66.1815 45.9085 66.1569C45.6416 66.1348 45.3495 66.1029 45.0398 66.0635L41.7539 65.8127C41.414 65.7881 41.1597 65.5005 41.1849 65.1685C41.21 64.8366 41.5046 64.5883 41.8445 64.6129L46.3843 64.9596C46.5329 64.9596 46.7092 64.977 46.9006 65.0065ZM47.5099 48.0658H47.5477V48.0682C48.6908 48.0682 49.7106 48.4075 50.4433 48.9509C51.1357 49.4672 51.5537 50.1582 51.5562 50.913H51.5537C51.5537 53.4111 47.165 54.7634 44.6096 52.8726C43.9096 52.3563 43.4765 51.658 43.4665 50.9081C43.4589 50.1164 42.2302 50.1286 42.2378 50.9179C42.2604 53.1677 44.5089 54.6872 46.8002 54.9257L46.7801 56.5165C46.77 57.3057 47.9987 57.3205 48.0088 56.5312L48.0289 54.9453C50.4058 54.7683 52.7877 53.2464 52.7877 50.9155H52.7852C52.7827 49.7648 52.1784 48.7371 51.1914 47.9994C50.2547 47.3011 48.9706 46.8659 47.5505 46.8659V46.8684H47.475V46.8659C46.3318 46.8659 45.312 46.5266 44.5794 45.9833C43.8869 45.4669 43.4689 44.776 43.4664 44.0212H43.4689C43.4689 41.5206 47.8576 40.1708 50.413 42.0615C51.113 42.5779 51.5461 43.2762 51.5561 44.0261C51.5637 44.8178 52.7925 44.8055 52.7848 44.0162C52.7622 41.7665 50.5137 40.247 48.2224 40.0085L48.2426 38.4177C48.2526 37.6284 47.0239 37.6137 47.0139 38.4029L46.9937 39.9888C44.6168 40.1658 42.2349 41.6878 42.2349 44.0187H42.2374C42.2399 45.1694 42.8442 46.1971 43.8313 46.9347C44.7679 47.633 46.052 48.0682 47.4721 48.0682V48.0658L47.5099 48.0658ZM56.4638 39.1063C54.6282 38.9957 52.76 38.4228 50.8212 37.1492C50.6122 37.0385 50.3604 36.8738 50.0507 36.6722C49.4968 36.3107 48.744 35.8214 47.8324 35.3739L47.5102 35.3715V35.369C40.6743 35.369 35.1245 40.7857 35.1245 47.4662C35.1245 49.121 35.4644 50.6946 36.0763 52.128C36.6806 53.5418 37.5518 54.8178 38.6294 55.8997C40.4347 56.0226 42.2728 56.598 44.1764 57.852C44.3853 57.9626 44.6371 58.1274 44.9468 58.329C45.4706 58.6683 46.1705 59.1231 47.014 59.551L47.5075 59.5583C54.3485 59.5583 59.8932 54.1442 59.8932 47.4637C59.8957 44.3091 58.6569 41.3485 56.4638 39.1063ZM23.6931 58.2035L19.3598 59.2584L23.5244 75.6729L27.8577 74.6181L23.6931 58.2035ZM29.6253 71.8126C29.6178 71.7905 29.6127 71.7708 29.6102 71.7487L26.4477 58.9585L25.3298 59.2486L28.7743 73.1825L29.8923 72.8924L29.6253 71.8126ZM71.3067 36.7976L75.6401 35.7427L71.478 19.3282L67.1446 20.383L71.3067 36.7976ZM51.4078 36.0943C51.4355 36.1066 51.4632 36.1214 51.4883 36.1386C56.4939 39.4456 61.17 37.4614 66.1881 35.3322C66.4776 35.2092 66.7697 35.0838 67.024 34.9781L64.3424 24.1278C63.4411 24.3811 61.6685 24.804 60.835 24.8163C58.7904 24.8483 48.8219 22.7387 47.7493 22.8001C47.7115 22.8026 47.6712 22.8026 47.6335 22.7977C45.4303 22.5543 41.9203 23.164 38.3121 24.4573C35.1295 25.5982 31.8915 27.2627 29.424 29.3306C29.3963 29.3576 29.366 29.3822 29.3308 29.4019C27.9358 30.2944 26.3471 32.1016 25.6269 33.5399C25.219 34.3538 25.0101 35.1652 25.4129 35.5438C25.7805 35.8881 27.0244 34.9783 28.5528 33.8596C30.8466 32.1802 31.8537 31.5336 34.5353 30.4444C35.9176 29.8838 37.1967 29.4486 37.5089 29.3773C37.5266 29.3724 37.5442 29.3699 37.5618 29.3674C39.2211 28.438 41.2909 27.8037 42.4541 27.6168C42.4742 27.6144 42.4944 27.6119 42.512 27.6095C44.1159 27.4865 47.5352 28.8413 48.6608 28.8437C48.6759 28.8437 48.691 28.8437 48.7061 28.8462V28.8437L53.2459 29.1904C53.5858 29.215 53.8401 29.5027 53.8149 29.8346C53.7897 30.1665 53.4952 30.4149 53.1553 30.3903L48.6155 30.0436C47.9658 30.0288 46.941 29.751 45.8584 29.4559C44.612 29.1166 43.2825 28.7527 42.6329 28.8069C41.4168 29.006 39.1482 29.7289 37.5769 30.769C36.6328 31.3959 35.968 32.1114 36.0687 32.8269C36.1921 33.6875 38.1058 33.4613 40.0949 33.2252C40.9031 33.1293 41.7239 33.031 42.5146 33.0064L42.5297 33.0039C46.2789 32.7802 49.1947 34.6758 50.723 35.6692C51.0176 35.8585 51.2516 36.0083 51.4078 36.0943ZM65.3746 23.1883C65.3822 23.2104 65.3872 23.2326 65.3897 23.2522L68.5522 36.0425L69.6702 35.7523L66.2256 21.8184L65.1077 22.1086L65.3746 23.1883Z" fill="#C0C0C0"/>
</svg>
