<svg width="95" height="95" viewBox="0 0 95 95" fill="none" xmlns="http://www.w3.org/2000/svg">
<path d="M79.3446 41.1851C79.2319 40.151 78.6956 39.1995 77.865 38.5724L48.1079 16.1423C47.8549 15.9526 47.5084 15.9526 47.2636 16.1423L17.5016 38.5724C16.671 39.1995 16.1348 40.1483 16.022 41.1851C15.9092 42.2192 16.2337 43.2614 16.9158 44.0507C18.2111 45.5496 20.4635 45.7971 22.0476 44.6008L23.4337 43.5584V78.296C23.4337 78.6837 23.75 79 24.1378 79H71.2369C71.6247 79 71.9409 78.6837 71.9409 78.296V43.5584L73.327 44.6008C74.0036 45.1068 74.7984 45.3598 75.5932 45.3598C76.6575 45.3598 77.7136 44.9088 78.4589 44.0507C79.1354 43.2614 79.46 42.2191 79.3527 41.185L79.3446 41.1851ZM70.53 77.5891H24.839V42.4911L47.6845 25.2695L70.53 42.4911V77.5891ZM77.3889 43.1268C76.5804 44.0701 75.164 44.2187 74.1795 43.4706L48.1158 23.8292C47.9893 23.7384 47.8408 23.6889 47.6923 23.6889C47.5438 23.6889 47.3953 23.7384 47.2688 23.8292L21.1973 43.4734C20.2045 44.2187 18.7964 44.073 17.9796 43.1296C17.5506 42.6291 17.3526 41.9883 17.4241 41.3338C17.4956 40.6792 17.8256 40.0935 18.3536 39.7002L47.6841 17.5918L77.023 39.6974C77.551 40.0906 77.8811 40.6764 77.9526 41.331C78.0241 41.9855 77.826 42.6263 77.397 43.1268H77.3889Z" fill="#C0C0C0"/>
<path d="M40.1436 53.5601C39.8768 53.2933 39.412 53.2933 39.1507 53.5601L36.8488 55.8619C36.5738 56.137 36.5738 56.5797 36.8488 56.8548L44.1202 64.1261C44.255 64.2609 44.4365 64.3297 44.6207 64.3297C44.805 64.3297 44.9865 64.2581 45.1213 64.1261L58.5255 50.7219C58.8006 50.4468 58.8006 50.0041 58.5255 49.729L56.2237 47.4271C56.0889 47.2924 55.9129 47.2236 55.7231 47.2236C55.5334 47.2236 55.3574 47.3006 55.2226 47.4271L44.6127 58.0371L40.1354 53.5598L40.1436 53.5601ZM55.7261 48.9206L57.0352 50.2297L44.6237 62.6412L38.3423 56.3598L39.6514 55.0507L44.1286 59.528C44.4037 59.803 44.8464 59.803 45.1215 59.528L55.7314 48.9181L55.7261 48.9206Z" fill="#C0C0C0"/>
<path d="M47.0442 37.7771C44.778 42.7054 32.7655 43.613 32.6472 43.6268C32.2952 43.6543 32.0201 43.9293 31.9926 44.2813C31.9789 44.5123 30.4993 67.7048 47.1655 74.0546L47.4405 74.1591C47.5175 74.1866 47.6027 74.2004 47.688 74.2004C47.7733 74.2004 47.8558 74.1866 47.9355 74.1591L48.2105 74.0546C64.8766 67.7045 63.3967 44.5122 63.3834 44.2813C63.3559 43.9293 63.0809 43.6543 62.7288 43.6268C62.6078 43.6185 50.5982 42.6972 48.3234 37.7771C48.2106 37.5296 47.9576 37.3701 47.6826 37.3701C47.4076 37.3701 47.1546 37.5324 47.0418 37.7771H47.0442ZM61.9966 44.9718C62.1011 48.5635 61.9471 67.3033 47.7038 72.7322H47.6818H47.6598C33.4304 67.3116 33.2629 48.5694 33.3671 44.9718C35.8175 44.7242 44.5825 43.5774 47.6873 39.4247C50.8142 43.5719 59.5518 44.727 61.9991 44.9718H61.9966Z" fill="#C0C0C0"/>
<circle cx="47.5" cy="47.5" r="47" stroke="#CDAC6D"/>
</svg>
