<svg width="132" height="42" viewBox="0 0 132 42" fill="none" xmlns="http://www.w3.org/2000/svg">
<path d="M57.2232 41.2999H46.4523L53.184 0.725017H63.956L57.2232 41.2999ZM37.3912 0.725017L27.1226 28.6328L25.9075 22.6231L25.9087 22.6253L22.2844 4.37832C22.2844 4.37832 21.8462 0.725017 17.1751 0.725017H0.199196L0 1.41205C0 1.41205 5.19125 2.47135 11.2667 6.04977L20.6244 41.301H31.8469L48.9832 0.725017H37.3912ZM122.11 41.2999H132L123.377 0.723932H114.719C110.72 0.723932 109.747 3.74773 109.747 3.74773L93.6826 41.2999H104.911L107.156 35.273H120.848L122.11 41.2999ZM110.258 26.9472L115.917 11.7631L119.101 26.9472H110.258ZM94.5247 10.4824L96.0619 1.76913C96.0619 1.76913 91.3188 0 86.3744 0C81.0293 0 68.3361 2.29118 68.3361 13.4324C68.3361 23.9147 83.2337 24.045 83.2337 29.551C83.2337 35.057 69.871 34.0704 65.4611 30.5983L63.8598 39.7088C63.8598 39.7088 68.6692 42 76.0173 42C83.3676 42 94.4561 38.2675 94.4561 28.1085C94.4561 17.5589 79.4247 16.5766 79.4247 11.9899C79.4258 7.40212 89.9156 7.99147 94.5247 10.4824Z" fill="#2566AF"/>
</svg>
