<svg width="57" height="57" viewBox="0 0 57 57" fill="none" xmlns="http://www.w3.org/2000/svg">
<g clip-path="url(#clip0_265_399)">
<path d="M28.5 56.5C43.964 56.5 56.5 43.964 56.5 28.5C56.5 13.036 43.964 0.5 28.5 0.5C13.036 0.5 0.5 13.036 0.5 28.5C0.5 43.964 13.036 56.5 28.5 56.5Z" stroke="#CDAC6D"/>
<path d="M37.6268 15H42.227L32.1769 26.4369L44 42H34.7426L27.4919 32.5611L19.1954 42H14.5924L25.342 29.7669L14 15H23.4924L30.0464 23.6275L37.6268 15ZM36.0122 39.2585H38.5613L22.1074 17.5975H19.372L36.0122 39.2585Z" fill="white"/>
</g>
<defs>
<clipPath id="clip0_265_399">
<rect width="57" height="57" fill="white"/>
</clipPath>
</defs>
</svg>
